M48
; DRILL file {KiCad 6.0.5} date Wed Jun 15 21:06:37 2022
; FORMAT={-:-/ absolute / inch / decimal}
; #@! TF.CreationDate,2022-06-15T21:06:37+00:00
; #@! TF.GenerationSoftware,Kicad,Pcbnew,6.0.5
; #@! TF.FileFunction,Plated,1,2,PTH
FMAT,2
INCH
; #@! TA.AperFunction,Plated,PTH,ViaDrill
T1C0.0157
; #@! TA.AperFunction,Plated,PTH,ComponentDrill
T2C0.0236
; #@! TA.AperFunction,Plated,PTH,ComponentDrill
T3C0.0315
; #@! TA.AperFunction,Plated,PTH,ComponentDrill
T4C0.0354
; #@! TA.AperFunction,Plated,PTH,ComponentDrill
T5C0.0394
; #@! TA.AperFunction,Plated,PTH,ComponentDrill
T6C0.0520
; #@! TA.AperFunction,Plated,PTH,ComponentDrill
T7C0.0598
%
G90
G05
T1
X5.2244Y-2.9685
T2
X5.1211Y-3.1336
X5.1217Y-3.3321
X5.1248Y-3.9957
X5.1248Y-4.1957
X5.1801Y-3.1336
X5.1807Y-3.3321
X5.1838Y-3.9957
X5.1838Y-4.1957
T3
X4.4921Y-3.4693
X4.4921Y-3.8693
X4.7628Y-4.4253
X4.7628Y-4.5253
X4.7628Y-4.6253
X4.7628Y-4.7253
X5.0628Y-4.4253
X5.0628Y-4.5253
X5.0628Y-4.6253
X5.0628Y-4.7253
X5.2507Y-4.4082
X5.2507Y-4.8082
X5.4507Y-4.7098
X5.4507Y-4.8082
X5.6807Y-4.4082
X5.6807Y-4.8082
X5.8807Y-4.7098
X5.8807Y-4.8082
X6.1107Y-4.4082
X6.1107Y-4.8082
X6.3107Y-4.7098
X6.3107Y-4.8082
X6.5407Y-4.4082
X6.5407Y-4.8082
X6.7407Y-4.7098
X6.7407Y-4.8082
T4
X4.5132Y-3.126
X4.6132Y-3.126
T5
X4.3365Y-3.55
X4.3365Y-3.65
X4.3365Y-3.75
X4.3365Y-3.85
X4.3365Y-3.95
X4.7634Y-2.675
X4.7634Y-2.775
X4.7734Y-3.6258
X4.8634Y-2.675
X4.8634Y-2.775
X4.8734Y-3.6258
X4.9601Y-3.1321
X4.9601Y-3.2321
X4.9601Y-3.3321
X4.9632Y-3.9942
X4.9632Y-4.0942
X4.9632Y-4.1942
X4.9634Y-2.675
X4.9634Y-2.775
X4.9734Y-3.6258
X5.0634Y-2.675
X5.0634Y-2.775
X5.1634Y-2.675
X5.1634Y-2.775
X5.2634Y-2.675
X5.2634Y-2.775
X5.3634Y-2.675
X5.3634Y-2.775
X5.4634Y-2.675
X5.4634Y-2.775
X5.5634Y-2.675
X5.5634Y-2.775
X5.6634Y-2.675
X5.6634Y-2.775
X5.7634Y-2.675
X5.7634Y-2.775
X5.8634Y-2.675
X5.8634Y-2.775
X5.9634Y-2.675
X5.9634Y-2.775
X6.0634Y-2.675
X6.0634Y-2.775
X6.1634Y-2.675
X6.1634Y-2.775
X6.2634Y-2.675
X6.2634Y-2.775
X6.3634Y-2.675
X6.3634Y-2.775
X6.4634Y-2.675
X6.4634Y-2.775
X6.5634Y-2.675
X6.5634Y-2.775
X6.6634Y-2.675
X6.6634Y-2.775
T6
X4.1832Y-2.9089
X4.1832Y-3.1089
T7
X4.0669Y-4.3504
X4.0669Y-4.5504
X4.0669Y-4.7992
X4.0669Y-4.9992
X4.3661Y-5.0236
X4.5661Y-5.0236
X4.815Y-5.0236
X5.015Y-5.0236
X5.2498Y-5.0228
X5.4498Y-5.0228
X5.6807Y-5.0228
X5.8807Y-5.0228
X6.1107Y-5.0228
X6.3107Y-5.0228
X6.5407Y-5.0228
X6.7407Y-5.0228
X7.0432Y-2.8357
X7.0432Y-3.0357
X7.0432Y-3.2357
X7.0432Y-3.4357
X7.0432Y-3.6357
X7.0432Y-3.8357
X7.0432Y-4.0757
X7.0432Y-4.2757
X7.0432Y-4.4757
X7.0432Y-4.6757
X7.0432Y-4.8757
X7.0432Y-5.0757
T0
M30
