%FSLAX45Y45*%
G04 Gerber Fmt 4.5, Leading zero omitted, Abs format (unit mm)*
G04 Created by KiCad (PCBNEW 6.0.5) date 2022-06-15 21:06:38*
%MOMM*%
%LPD*%
G01*
G04 APERTURE LIST*
%TA.AperFunction,Profile*%
%ADD10C,0.100000*%
%TD*%
%ADD11C,0.200000*%
%ADD12C,0.250000*%
G04 APERTURE END LIST*
D10*
X9698299Y-6186749D02*
X18588299Y-6186749D01*
X18588299Y-6186749D02*
X18588299Y-13870249D01*
X18588299Y-13870249D02*
X9698299Y-13870249D01*
X9698299Y-13870249D02*
X9698299Y-6186749D01*
D11*
D12*
X10195599Y-6468149D02*
X10445599Y-6718149D01*
X10445599Y-6468149D02*
X10195599Y-6718149D01*
X10195599Y-13351549D02*
X10445599Y-13601549D01*
X10445599Y-13351549D02*
X10195599Y-13601549D01*
X17764799Y-6468149D02*
X18014799Y-6718149D01*
X18014799Y-6468149D02*
X17764799Y-6718149D01*
X17764799Y-13351549D02*
X18014799Y-13601549D01*
X18014799Y-13351549D02*
X17764799Y-13601549D01*
D11*
X9950918Y-14185725D02*
X9950918Y-13985725D01*
X9998537Y-13985725D01*
X10027108Y-13995249D01*
X10046156Y-14014296D01*
X10055680Y-14033344D01*
X10065204Y-14071439D01*
X10065204Y-14100011D01*
X10055680Y-14138106D01*
X10046156Y-14157154D01*
X10027108Y-14176201D01*
X9998537Y-14185725D01*
X9950918Y-14185725D01*
X10150918Y-14185725D02*
X10150918Y-14052392D01*
X10150918Y-14090487D02*
X10160442Y-14071439D01*
X10169966Y-14061915D01*
X10189013Y-14052392D01*
X10208061Y-14052392D01*
X10274727Y-14185725D02*
X10274727Y-14052392D01*
X10274727Y-13985725D02*
X10265204Y-13995249D01*
X10274727Y-14004773D01*
X10284251Y-13995249D01*
X10274727Y-13985725D01*
X10274727Y-14004773D01*
X10398537Y-14185725D02*
X10379489Y-14176201D01*
X10369966Y-14157154D01*
X10369966Y-13985725D01*
X10503299Y-14185725D02*
X10484251Y-14176201D01*
X10474727Y-14157154D01*
X10474727Y-13985725D01*
X10731870Y-14185725D02*
X10731870Y-13985725D01*
X10798537Y-14128582D01*
X10865204Y-13985725D01*
X10865204Y-14185725D01*
X11046156Y-14185725D02*
X11046156Y-14080963D01*
X11036632Y-14061915D01*
X11017585Y-14052392D01*
X10979489Y-14052392D01*
X10960442Y-14061915D01*
X11046156Y-14176201D02*
X11027108Y-14185725D01*
X10979489Y-14185725D01*
X10960442Y-14176201D01*
X10950918Y-14157154D01*
X10950918Y-14138106D01*
X10960442Y-14119058D01*
X10979489Y-14109535D01*
X11027108Y-14109535D01*
X11046156Y-14100011D01*
X11141394Y-14052392D02*
X11141394Y-14252392D01*
X11141394Y-14061915D02*
X11160442Y-14052392D01*
X11198537Y-14052392D01*
X11217585Y-14061915D01*
X11227108Y-14071439D01*
X11236632Y-14090487D01*
X11236632Y-14147630D01*
X11227108Y-14166677D01*
X11217585Y-14176201D01*
X11198537Y-14185725D01*
X11160442Y-14185725D01*
X11141394Y-14176201D01*
X11322346Y-14166677D02*
X11331870Y-14176201D01*
X11322346Y-14185725D01*
X11312823Y-14176201D01*
X11322346Y-14166677D01*
X11322346Y-14185725D01*
X11322346Y-14061915D02*
X11331870Y-14071439D01*
X11322346Y-14080963D01*
X11312823Y-14071439D01*
X11322346Y-14061915D01*
X11322346Y-14080963D01*
X9493299Y-14415249D02*
X9693299Y-14615249D01*
X9693299Y-14415249D02*
X9493299Y-14615249D01*
X9941394Y-14424773D02*
X9950918Y-14415249D01*
X9969966Y-14405725D01*
X10017585Y-14405725D01*
X10036632Y-14415249D01*
X10046156Y-14424773D01*
X10055680Y-14443820D01*
X10055680Y-14462868D01*
X10046156Y-14491439D01*
X9931870Y-14605725D01*
X10055680Y-14605725D01*
X10141394Y-14586677D02*
X10150918Y-14596201D01*
X10141394Y-14605725D01*
X10131870Y-14596201D01*
X10141394Y-14586677D01*
X10141394Y-14605725D01*
X10331870Y-14405725D02*
X10236632Y-14405725D01*
X10227108Y-14500963D01*
X10236632Y-14491439D01*
X10255680Y-14481915D01*
X10303299Y-14481915D01*
X10322347Y-14491439D01*
X10331870Y-14500963D01*
X10341394Y-14520011D01*
X10341394Y-14567630D01*
X10331870Y-14586677D01*
X10322347Y-14596201D01*
X10303299Y-14605725D01*
X10255680Y-14605725D01*
X10236632Y-14596201D01*
X10227108Y-14586677D01*
X10465204Y-14405725D02*
X10484251Y-14405725D01*
X10503299Y-14415249D01*
X10512823Y-14424773D01*
X10522347Y-14443820D01*
X10531870Y-14481915D01*
X10531870Y-14529535D01*
X10522347Y-14567630D01*
X10512823Y-14586677D01*
X10503299Y-14596201D01*
X10484251Y-14605725D01*
X10465204Y-14605725D01*
X10446156Y-14596201D01*
X10436632Y-14586677D01*
X10427108Y-14567630D01*
X10417585Y-14529535D01*
X10417585Y-14481915D01*
X10427108Y-14443820D01*
X10436632Y-14424773D01*
X10446156Y-14415249D01*
X10465204Y-14405725D01*
X10655680Y-14405725D02*
X10674727Y-14405725D01*
X10693775Y-14415249D01*
X10703299Y-14424773D01*
X10712823Y-14443820D01*
X10722347Y-14481915D01*
X10722347Y-14529535D01*
X10712823Y-14567630D01*
X10703299Y-14586677D01*
X10693775Y-14596201D01*
X10674727Y-14605725D01*
X10655680Y-14605725D01*
X10636632Y-14596201D01*
X10627108Y-14586677D01*
X10617585Y-14567630D01*
X10608061Y-14529535D01*
X10608061Y-14481915D01*
X10617585Y-14443820D01*
X10627108Y-14424773D01*
X10636632Y-14415249D01*
X10655680Y-14405725D01*
X10808061Y-14605725D02*
X10808061Y-14472392D01*
X10808061Y-14491439D02*
X10817585Y-14481915D01*
X10836632Y-14472392D01*
X10865204Y-14472392D01*
X10884251Y-14481915D01*
X10893775Y-14500963D01*
X10893775Y-14605725D01*
X10893775Y-14500963D02*
X10903299Y-14481915D01*
X10922347Y-14472392D01*
X10950918Y-14472392D01*
X10969966Y-14481915D01*
X10979489Y-14500963D01*
X10979489Y-14605725D01*
X11074727Y-14605725D02*
X11074727Y-14472392D01*
X11074727Y-14491439D02*
X11084251Y-14481915D01*
X11103299Y-14472392D01*
X11131870Y-14472392D01*
X11150918Y-14481915D01*
X11160442Y-14500963D01*
X11160442Y-14605725D01*
X11160442Y-14500963D02*
X11169966Y-14481915D01*
X11189013Y-14472392D01*
X11217585Y-14472392D01*
X11236632Y-14481915D01*
X11246156Y-14500963D01*
X11246156Y-14605725D01*
X11636632Y-14396201D02*
X11465204Y-14653344D01*
X11893775Y-14405725D02*
X11912823Y-14405725D01*
X11931870Y-14415249D01*
X11941394Y-14424773D01*
X11950918Y-14443820D01*
X11960442Y-14481915D01*
X11960442Y-14529535D01*
X11950918Y-14567630D01*
X11941394Y-14586677D01*
X11931870Y-14596201D01*
X11912823Y-14605725D01*
X11893775Y-14605725D01*
X11874727Y-14596201D01*
X11865204Y-14586677D01*
X11855680Y-14567630D01*
X11846156Y-14529535D01*
X11846156Y-14481915D01*
X11855680Y-14443820D01*
X11865204Y-14424773D01*
X11874727Y-14415249D01*
X11893775Y-14405725D01*
X12046156Y-14586677D02*
X12055680Y-14596201D01*
X12046156Y-14605725D01*
X12036632Y-14596201D01*
X12046156Y-14586677D01*
X12046156Y-14605725D01*
X12179489Y-14405725D02*
X12198537Y-14405725D01*
X12217585Y-14415249D01*
X12227108Y-14424773D01*
X12236632Y-14443820D01*
X12246156Y-14481915D01*
X12246156Y-14529535D01*
X12236632Y-14567630D01*
X12227108Y-14586677D01*
X12217585Y-14596201D01*
X12198537Y-14605725D01*
X12179489Y-14605725D01*
X12160442Y-14596201D01*
X12150918Y-14586677D01*
X12141394Y-14567630D01*
X12131870Y-14529535D01*
X12131870Y-14481915D01*
X12141394Y-14443820D01*
X12150918Y-14424773D01*
X12160442Y-14415249D01*
X12179489Y-14405725D01*
X12341394Y-14605725D02*
X12379489Y-14605725D01*
X12398537Y-14596201D01*
X12408061Y-14586677D01*
X12427108Y-14558106D01*
X12436632Y-14520011D01*
X12436632Y-14443820D01*
X12427108Y-14424773D01*
X12417585Y-14415249D01*
X12398537Y-14405725D01*
X12360442Y-14405725D01*
X12341394Y-14415249D01*
X12331870Y-14424773D01*
X12322346Y-14443820D01*
X12322346Y-14491439D01*
X12331870Y-14510487D01*
X12341394Y-14520011D01*
X12360442Y-14529535D01*
X12398537Y-14529535D01*
X12417585Y-14520011D01*
X12427108Y-14510487D01*
X12436632Y-14491439D01*
X12550918Y-14491439D02*
X12531870Y-14481915D01*
X12522346Y-14472392D01*
X12512823Y-14453344D01*
X12512823Y-14443820D01*
X12522346Y-14424773D01*
X12531870Y-14415249D01*
X12550918Y-14405725D01*
X12589013Y-14405725D01*
X12608061Y-14415249D01*
X12617585Y-14424773D01*
X12627108Y-14443820D01*
X12627108Y-14453344D01*
X12617585Y-14472392D01*
X12608061Y-14481915D01*
X12589013Y-14491439D01*
X12550918Y-14491439D01*
X12531870Y-14500963D01*
X12522346Y-14510487D01*
X12512823Y-14529535D01*
X12512823Y-14567630D01*
X12522346Y-14586677D01*
X12531870Y-14596201D01*
X12550918Y-14605725D01*
X12589013Y-14605725D01*
X12608061Y-14596201D01*
X12617585Y-14586677D01*
X12627108Y-14567630D01*
X12627108Y-14529535D01*
X12617585Y-14510487D01*
X12608061Y-14500963D01*
X12589013Y-14491439D01*
X12798537Y-14472392D02*
X12798537Y-14605725D01*
X12750918Y-14396201D02*
X12703299Y-14539058D01*
X12827108Y-14539058D01*
X12893775Y-14405725D02*
X12893775Y-14443820D01*
X12969965Y-14405725D02*
X12969965Y-14443820D01*
X13265204Y-14681915D02*
X13255680Y-14672392D01*
X13236632Y-14643820D01*
X13227108Y-14624773D01*
X13217585Y-14596201D01*
X13208061Y-14548582D01*
X13208061Y-14510487D01*
X13217585Y-14462868D01*
X13227108Y-14434296D01*
X13236632Y-14415249D01*
X13255680Y-14386677D01*
X13265204Y-14377154D01*
X13427108Y-14472392D02*
X13427108Y-14605725D01*
X13379489Y-14396201D02*
X13331870Y-14539058D01*
X13455680Y-14539058D01*
X13684251Y-14605725D02*
X13684251Y-14405725D01*
X13769965Y-14605725D02*
X13769965Y-14500963D01*
X13760442Y-14481915D01*
X13741394Y-14472392D01*
X13712823Y-14472392D01*
X13693775Y-14481915D01*
X13684251Y-14491439D01*
X13893775Y-14605725D02*
X13874727Y-14596201D01*
X13865204Y-14586677D01*
X13855680Y-14567630D01*
X13855680Y-14510487D01*
X13865204Y-14491439D01*
X13874727Y-14481915D01*
X13893775Y-14472392D01*
X13922346Y-14472392D01*
X13941394Y-14481915D01*
X13950918Y-14491439D01*
X13960442Y-14510487D01*
X13960442Y-14567630D01*
X13950918Y-14586677D01*
X13941394Y-14596201D01*
X13922346Y-14605725D01*
X13893775Y-14605725D01*
X14074727Y-14605725D02*
X14055680Y-14596201D01*
X14046156Y-14577154D01*
X14046156Y-14405725D01*
X14227108Y-14596201D02*
X14208061Y-14605725D01*
X14169965Y-14605725D01*
X14150918Y-14596201D01*
X14141394Y-14577154D01*
X14141394Y-14500963D01*
X14150918Y-14481915D01*
X14169965Y-14472392D01*
X14208061Y-14472392D01*
X14227108Y-14481915D01*
X14236632Y-14500963D01*
X14236632Y-14520011D01*
X14141394Y-14539058D01*
X14312823Y-14596201D02*
X14331870Y-14605725D01*
X14369965Y-14605725D01*
X14389013Y-14596201D01*
X14398537Y-14577154D01*
X14398537Y-14567630D01*
X14389013Y-14548582D01*
X14369965Y-14539058D01*
X14341394Y-14539058D01*
X14322346Y-14529535D01*
X14312823Y-14510487D01*
X14312823Y-14500963D01*
X14322346Y-14481915D01*
X14341394Y-14472392D01*
X14369965Y-14472392D01*
X14389013Y-14481915D01*
X14465204Y-14681915D02*
X14474727Y-14672392D01*
X14493775Y-14643820D01*
X14503299Y-14624773D01*
X14512823Y-14596201D01*
X14522346Y-14548582D01*
X14522346Y-14510487D01*
X14512823Y-14462868D01*
X14503299Y-14434296D01*
X14493775Y-14415249D01*
X14474727Y-14386677D01*
X14465204Y-14377154D01*
X14827108Y-14681915D02*
X14817585Y-14672392D01*
X14798537Y-14643820D01*
X14789013Y-14624773D01*
X14779489Y-14596201D01*
X14769965Y-14548582D01*
X14769965Y-14510487D01*
X14779489Y-14462868D01*
X14789013Y-14434296D01*
X14798537Y-14415249D01*
X14817585Y-14386677D01*
X14827108Y-14377154D01*
X14903299Y-14472392D02*
X14903299Y-14605725D01*
X14903299Y-14491439D02*
X14912823Y-14481915D01*
X14931870Y-14472392D01*
X14960442Y-14472392D01*
X14979489Y-14481915D01*
X14989013Y-14500963D01*
X14989013Y-14605725D01*
X15112823Y-14605725D02*
X15093775Y-14596201D01*
X15084251Y-14586677D01*
X15074727Y-14567630D01*
X15074727Y-14510487D01*
X15084251Y-14491439D01*
X15093775Y-14481915D01*
X15112823Y-14472392D01*
X15141394Y-14472392D01*
X15160442Y-14481915D01*
X15169965Y-14491439D01*
X15179489Y-14510487D01*
X15179489Y-14567630D01*
X15169965Y-14586677D01*
X15160442Y-14596201D01*
X15141394Y-14605725D01*
X15112823Y-14605725D01*
X15236632Y-14472392D02*
X15312823Y-14472392D01*
X15265204Y-14405725D02*
X15265204Y-14577154D01*
X15274727Y-14596201D01*
X15293775Y-14605725D01*
X15312823Y-14605725D01*
X15531870Y-14472392D02*
X15531870Y-14672392D01*
X15531870Y-14481915D02*
X15550918Y-14472392D01*
X15589013Y-14472392D01*
X15608061Y-14481915D01*
X15617585Y-14491439D01*
X15627108Y-14510487D01*
X15627108Y-14567630D01*
X15617585Y-14586677D01*
X15608061Y-14596201D01*
X15589013Y-14605725D01*
X15550918Y-14605725D01*
X15531870Y-14596201D01*
X15741394Y-14605725D02*
X15722346Y-14596201D01*
X15712823Y-14577154D01*
X15712823Y-14405725D01*
X15903299Y-14605725D02*
X15903299Y-14500963D01*
X15893775Y-14481915D01*
X15874727Y-14472392D01*
X15836632Y-14472392D01*
X15817585Y-14481915D01*
X15903299Y-14596201D02*
X15884251Y-14605725D01*
X15836632Y-14605725D01*
X15817585Y-14596201D01*
X15808061Y-14577154D01*
X15808061Y-14558106D01*
X15817585Y-14539058D01*
X15836632Y-14529535D01*
X15884251Y-14529535D01*
X15903299Y-14520011D01*
X15969965Y-14472392D02*
X16046156Y-14472392D01*
X15998537Y-14405725D02*
X15998537Y-14577154D01*
X16008061Y-14596201D01*
X16027108Y-14605725D01*
X16046156Y-14605725D01*
X16189013Y-14596201D02*
X16169965Y-14605725D01*
X16131870Y-14605725D01*
X16112823Y-14596201D01*
X16103299Y-14577154D01*
X16103299Y-14500963D01*
X16112823Y-14481915D01*
X16131870Y-14472392D01*
X16169965Y-14472392D01*
X16189013Y-14481915D01*
X16198537Y-14500963D01*
X16198537Y-14520011D01*
X16103299Y-14539058D01*
X16369965Y-14605725D02*
X16369965Y-14405725D01*
X16369965Y-14596201D02*
X16350918Y-14605725D01*
X16312823Y-14605725D01*
X16293775Y-14596201D01*
X16284251Y-14586677D01*
X16274727Y-14567630D01*
X16274727Y-14510487D01*
X16284251Y-14491439D01*
X16293775Y-14481915D01*
X16312823Y-14472392D01*
X16350918Y-14472392D01*
X16369965Y-14481915D01*
X16446156Y-14681915D02*
X16455680Y-14672392D01*
X16474727Y-14643820D01*
X16484251Y-14624773D01*
X16493775Y-14596201D01*
X16503299Y-14548582D01*
X16503299Y-14510487D01*
X16493775Y-14462868D01*
X16484251Y-14434296D01*
X16474727Y-14415249D01*
X16455680Y-14386677D01*
X16446156Y-14377154D01*
M02*
