%FSLAX45Y45*%
G04 Gerber Fmt 4.5, Leading zero omitted, Abs format (unit mm)*
G04 Created by KiCad (PCBNEW 6.0.5) date 2022-06-15 21:06:38*
%MOMM*%
%LPD*%
G01*
G04 APERTURE LIST*
%TA.AperFunction,Profile*%
%ADD10C,0.100000*%
%TD*%
%ADD11C,0.200000*%
%ADD12C,0.040000*%
%ADD13C,0.060000*%
%ADD14C,0.080000*%
%ADD15C,0.090000*%
%ADD16C,0.100000*%
%ADD17C,0.132000*%
%ADD18C,0.152000*%
G04 APERTURE END LIST*
D10*
X9698299Y-6186749D02*
X18588299Y-6186749D01*
X18588299Y-6186749D02*
X18588299Y-13870249D01*
X18588299Y-13870249D02*
X9698299Y-13870249D01*
X9698299Y-13870249D02*
X9698299Y-6186749D01*
D11*
D12*
X13250000Y-7520000D02*
X13290000Y-7560000D01*
X13290000Y-7520000D02*
X13250000Y-7560000D01*
D13*
X13037549Y-7959389D02*
G75*
G03*
X13037549Y-7959389I-30000J0D01*
G01*
X13039089Y-8463449D02*
G75*
G03*
X13039089Y-8463449I-30000J0D01*
G01*
X13046939Y-10149149D02*
G75*
G03*
X13046939Y-10149149I-30000J0D01*
G01*
X13046939Y-10657149D02*
G75*
G03*
X13046939Y-10657149I-30000J0D01*
G01*
X13187549Y-7959389D02*
G75*
G03*
X13187549Y-7959389I-30000J0D01*
G01*
X13189089Y-8463449D02*
G75*
G03*
X13189089Y-8463449I-30000J0D01*
G01*
X13196939Y-10149149D02*
G75*
G03*
X13196939Y-10149149I-30000J0D01*
G01*
X13196939Y-10657149D02*
G75*
G03*
X13196939Y-10657149I-30000J0D01*
G01*
D14*
X11410000Y-8772000D02*
X11410000Y-8852000D01*
X11370000Y-8812000D02*
X11450000Y-8812000D01*
X11410000Y-9788000D02*
X11410000Y-9868000D01*
X11370000Y-9828000D02*
X11450000Y-9828000D01*
X12097599Y-11200349D02*
X12097599Y-11280349D01*
X12057599Y-11240349D02*
X12137599Y-11240349D01*
X12097599Y-11454349D02*
X12097599Y-11534349D01*
X12057599Y-11494349D02*
X12137599Y-11494349D01*
X12097599Y-11708349D02*
X12097599Y-11788349D01*
X12057599Y-11748349D02*
X12137599Y-11748349D01*
X12097599Y-11962349D02*
X12097599Y-12042349D01*
X12057599Y-12002349D02*
X12137599Y-12002349D01*
X12859599Y-11200349D02*
X12859599Y-11280349D01*
X12819599Y-11240349D02*
X12899599Y-11240349D01*
X12859599Y-11454349D02*
X12859599Y-11534349D01*
X12819599Y-11494349D02*
X12899599Y-11494349D01*
X12859599Y-11708349D02*
X12859599Y-11788349D01*
X12819599Y-11748349D02*
X12899599Y-11748349D01*
X12859599Y-11962349D02*
X12859599Y-12042349D01*
X12819599Y-12002349D02*
X12899599Y-12002349D01*
X13336849Y-11156899D02*
X13336849Y-11236899D01*
X13296849Y-11196899D02*
X13376849Y-11196899D01*
X13336849Y-12172899D02*
X13336849Y-12252899D01*
X13296849Y-12212899D02*
X13376849Y-12212899D01*
X13844849Y-11922899D02*
X13844849Y-12002899D01*
X13804849Y-11962899D02*
X13884849Y-11962899D01*
X13844849Y-12172899D02*
X13844849Y-12252899D01*
X13804849Y-12212899D02*
X13884849Y-12212899D01*
X14429049Y-11156899D02*
X14429049Y-11236899D01*
X14389049Y-11196899D02*
X14469049Y-11196899D01*
X14429049Y-12172899D02*
X14429049Y-12252899D01*
X14389049Y-12212899D02*
X14469049Y-12212899D01*
X14937049Y-11922899D02*
X14937049Y-12002899D01*
X14897049Y-11962899D02*
X14977049Y-11962899D01*
X14937049Y-12172899D02*
X14937049Y-12252899D01*
X14897049Y-12212899D02*
X14977049Y-12212899D01*
X15521249Y-11156899D02*
X15521249Y-11236899D01*
X15481249Y-11196899D02*
X15561249Y-11196899D01*
X15521249Y-12172899D02*
X15521249Y-12252899D01*
X15481249Y-12212899D02*
X15561249Y-12212899D01*
X16029249Y-11922899D02*
X16029249Y-12002899D01*
X15989249Y-11962899D02*
X16069249Y-11962899D01*
X16029249Y-12172899D02*
X16029249Y-12252899D01*
X15989249Y-12212899D02*
X16069249Y-12212899D01*
X16613449Y-11156899D02*
X16613449Y-11236899D01*
X16573449Y-11196899D02*
X16653449Y-11196899D01*
X16613449Y-12172899D02*
X16613449Y-12252899D01*
X16573449Y-12212899D02*
X16653449Y-12212899D01*
X17121449Y-11922899D02*
X17121449Y-12002899D01*
X17081449Y-11962899D02*
X17161449Y-11962899D01*
X17121449Y-12172899D02*
X17121449Y-12252899D01*
X17081449Y-12212899D02*
X17161449Y-12212899D01*
D15*
X11495320Y-7971820D02*
X11495320Y-7908180D01*
X11431680Y-7908180D01*
X11431680Y-7971820D01*
X11495320Y-7971820D01*
X11749320Y-7971820D02*
X11749320Y-7908180D01*
X11685680Y-7908180D01*
X11685680Y-7971820D01*
X11749320Y-7971820D01*
D16*
X11014599Y-9067000D02*
X11064599Y-9017000D01*
X11014599Y-8967000D01*
X10964599Y-9017000D01*
X11014599Y-9067000D01*
X11014599Y-9321000D02*
X11064599Y-9271000D01*
X11014599Y-9221000D01*
X10964599Y-9271000D01*
X11014599Y-9321000D01*
X11014599Y-9575000D02*
X11064599Y-9525000D01*
X11014599Y-9475000D01*
X10964599Y-9525000D01*
X11014599Y-9575000D01*
X11014599Y-9829000D02*
X11064599Y-9779000D01*
X11014599Y-9729000D01*
X10964599Y-9779000D01*
X11014599Y-9829000D01*
X11014599Y-10083000D02*
X11064599Y-10033000D01*
X11014599Y-9983000D01*
X10964599Y-10033000D01*
X11014599Y-10083000D01*
X12099099Y-6844500D02*
X12149099Y-6794500D01*
X12099099Y-6744500D01*
X12049099Y-6794500D01*
X12099099Y-6844500D01*
X12099099Y-7098500D02*
X12149099Y-7048500D01*
X12099099Y-6998500D01*
X12049099Y-7048500D01*
X12099099Y-7098500D01*
X12124499Y-9259449D02*
X12174499Y-9209449D01*
X12124499Y-9159449D01*
X12074499Y-9209449D01*
X12124499Y-9259449D01*
X12353099Y-6844500D02*
X12403099Y-6794500D01*
X12353099Y-6744500D01*
X12303099Y-6794500D01*
X12353099Y-6844500D01*
X12353099Y-7098500D02*
X12403099Y-7048500D01*
X12353099Y-6998500D01*
X12303099Y-7048500D01*
X12353099Y-7098500D01*
X12378499Y-9259449D02*
X12428499Y-9209449D01*
X12378499Y-9159449D01*
X12328499Y-9209449D01*
X12378499Y-9259449D01*
X12598749Y-8005449D02*
X12648749Y-7955449D01*
X12598749Y-7905449D01*
X12548749Y-7955449D01*
X12598749Y-8005449D01*
X12598749Y-8259449D02*
X12648749Y-8209449D01*
X12598749Y-8159449D01*
X12548749Y-8209449D01*
X12598749Y-8259449D01*
X12598749Y-8513449D02*
X12648749Y-8463449D01*
X12598749Y-8413449D01*
X12548749Y-8463449D01*
X12598749Y-8513449D01*
X12606599Y-10195209D02*
X12656599Y-10145209D01*
X12606599Y-10095209D01*
X12556599Y-10145209D01*
X12606599Y-10195209D01*
X12606599Y-10449209D02*
X12656599Y-10399209D01*
X12606599Y-10349209D01*
X12556599Y-10399209D01*
X12606599Y-10449209D01*
X12606599Y-10703209D02*
X12656599Y-10653209D01*
X12606599Y-10603209D01*
X12556599Y-10653209D01*
X12606599Y-10703209D01*
X12607099Y-6844500D02*
X12657099Y-6794500D01*
X12607099Y-6744500D01*
X12557099Y-6794500D01*
X12607099Y-6844500D01*
X12607099Y-7098500D02*
X12657099Y-7048500D01*
X12607099Y-6998500D01*
X12557099Y-7048500D01*
X12607099Y-7098500D01*
X12632499Y-9259449D02*
X12682499Y-9209449D01*
X12632499Y-9159449D01*
X12582499Y-9209449D01*
X12632499Y-9259449D01*
X12861099Y-6844500D02*
X12911099Y-6794500D01*
X12861099Y-6744500D01*
X12811099Y-6794500D01*
X12861099Y-6844500D01*
X12861099Y-7098500D02*
X12911099Y-7048500D01*
X12861099Y-6998500D01*
X12811099Y-7048500D01*
X12861099Y-7098500D01*
X13115099Y-6844500D02*
X13165099Y-6794500D01*
X13115099Y-6744500D01*
X13065099Y-6794500D01*
X13115099Y-6844500D01*
X13115099Y-7098500D02*
X13165099Y-7048500D01*
X13115099Y-6998500D01*
X13065099Y-7048500D01*
X13115099Y-7098500D01*
X13369099Y-6844500D02*
X13419099Y-6794500D01*
X13369099Y-6744500D01*
X13319099Y-6794500D01*
X13369099Y-6844500D01*
X13369099Y-7098500D02*
X13419099Y-7048500D01*
X13369099Y-6998500D01*
X13319099Y-7048500D01*
X13369099Y-7098500D01*
X13623099Y-6844500D02*
X13673099Y-6794500D01*
X13623099Y-6744500D01*
X13573099Y-6794500D01*
X13623099Y-6844500D01*
X13623099Y-7098500D02*
X13673099Y-7048500D01*
X13623099Y-6998500D01*
X13573099Y-7048500D01*
X13623099Y-7098500D01*
X13877099Y-6844500D02*
X13927099Y-6794500D01*
X13877099Y-6744500D01*
X13827099Y-6794500D01*
X13877099Y-6844500D01*
X13877099Y-7098500D02*
X13927099Y-7048500D01*
X13877099Y-6998500D01*
X13827099Y-7048500D01*
X13877099Y-7098500D01*
X14131099Y-6844500D02*
X14181099Y-6794500D01*
X14131099Y-6744500D01*
X14081099Y-6794500D01*
X14131099Y-6844500D01*
X14131099Y-7098500D02*
X14181099Y-7048500D01*
X14131099Y-6998500D01*
X14081099Y-7048500D01*
X14131099Y-7098500D01*
X14385099Y-6844500D02*
X14435099Y-6794500D01*
X14385099Y-6744500D01*
X14335099Y-6794500D01*
X14385099Y-6844500D01*
X14385099Y-7098500D02*
X14435099Y-7048500D01*
X14385099Y-6998500D01*
X14335099Y-7048500D01*
X14385099Y-7098500D01*
X14639099Y-6844500D02*
X14689099Y-6794500D01*
X14639099Y-6744500D01*
X14589099Y-6794500D01*
X14639099Y-6844500D01*
X14639099Y-7098500D02*
X14689099Y-7048500D01*
X14639099Y-6998500D01*
X14589099Y-7048500D01*
X14639099Y-7098500D01*
X14893099Y-6844500D02*
X14943099Y-6794500D01*
X14893099Y-6744500D01*
X14843099Y-6794500D01*
X14893099Y-6844500D01*
X14893099Y-7098500D02*
X14943099Y-7048500D01*
X14893099Y-6998500D01*
X14843099Y-7048500D01*
X14893099Y-7098500D01*
X15147099Y-6844500D02*
X15197099Y-6794500D01*
X15147099Y-6744500D01*
X15097099Y-6794500D01*
X15147099Y-6844500D01*
X15147099Y-7098500D02*
X15197099Y-7048500D01*
X15147099Y-6998500D01*
X15097099Y-7048500D01*
X15147099Y-7098500D01*
X15401099Y-6844500D02*
X15451099Y-6794500D01*
X15401099Y-6744500D01*
X15351099Y-6794500D01*
X15401099Y-6844500D01*
X15401099Y-7098500D02*
X15451099Y-7048500D01*
X15401099Y-6998500D01*
X15351099Y-7048500D01*
X15401099Y-7098500D01*
X15655099Y-6844500D02*
X15705099Y-6794500D01*
X15655099Y-6744500D01*
X15605099Y-6794500D01*
X15655099Y-6844500D01*
X15655099Y-7098500D02*
X15705099Y-7048500D01*
X15655099Y-6998500D01*
X15605099Y-7048500D01*
X15655099Y-7098500D01*
X15909099Y-6844500D02*
X15959099Y-6794500D01*
X15909099Y-6744500D01*
X15859099Y-6794500D01*
X15909099Y-6844500D01*
X15909099Y-7098500D02*
X15959099Y-7048500D01*
X15909099Y-6998500D01*
X15859099Y-7048500D01*
X15909099Y-7098500D01*
X16163099Y-6844500D02*
X16213099Y-6794500D01*
X16163099Y-6744500D01*
X16113099Y-6794500D01*
X16163099Y-6844500D01*
X16163099Y-7098500D02*
X16213099Y-7048500D01*
X16163099Y-6998500D01*
X16113099Y-7048500D01*
X16163099Y-7098500D01*
X16417099Y-6844500D02*
X16467099Y-6794500D01*
X16417099Y-6744500D01*
X16367099Y-6794500D01*
X16417099Y-6844500D01*
X16417099Y-7098500D02*
X16467099Y-7048500D01*
X16417099Y-6998500D01*
X16367099Y-7048500D01*
X16417099Y-7098500D01*
X16671099Y-6844500D02*
X16721099Y-6794500D01*
X16671099Y-6744500D01*
X16621099Y-6794500D01*
X16671099Y-6844500D01*
X16671099Y-7098500D02*
X16721099Y-7048500D01*
X16671099Y-6998500D01*
X16621099Y-7048500D01*
X16671099Y-7098500D01*
X16925099Y-6844500D02*
X16975099Y-6794500D01*
X16925099Y-6744500D01*
X16875099Y-6794500D01*
X16925099Y-6844500D01*
X16925099Y-7098500D02*
X16975099Y-7048500D01*
X16925099Y-6998500D01*
X16875099Y-7048500D01*
X16925099Y-7098500D01*
D17*
X10559399Y-7322500D02*
X10691399Y-7454500D01*
X10691399Y-7322500D02*
X10559399Y-7454500D01*
X10691399Y-7388500D02*
G75*
G03*
X10691399Y-7388500I-66000J0D01*
G01*
X10559399Y-7830500D02*
X10691399Y-7962500D01*
X10691399Y-7830500D02*
X10559399Y-7962500D01*
X10691399Y-7896500D02*
G75*
G03*
X10691399Y-7896500I-66000J0D01*
G01*
D18*
X10254000Y-10974000D02*
X10406000Y-11126000D01*
X10406000Y-10974000D02*
X10254000Y-11126000D01*
X10330000Y-10974000D02*
X10330000Y-11126000D01*
X10254000Y-11050000D02*
X10406000Y-11050000D01*
X10254000Y-11482000D02*
X10406000Y-11634000D01*
X10406000Y-11482000D02*
X10254000Y-11634000D01*
X10330000Y-11482000D02*
X10330000Y-11634000D01*
X10254000Y-11558000D02*
X10406000Y-11558000D01*
X10254000Y-12114000D02*
X10406000Y-12266000D01*
X10406000Y-12114000D02*
X10254000Y-12266000D01*
X10330000Y-12114000D02*
X10330000Y-12266000D01*
X10254000Y-12190000D02*
X10406000Y-12190000D01*
X10254000Y-12622000D02*
X10406000Y-12774000D01*
X10406000Y-12622000D02*
X10254000Y-12774000D01*
X10330000Y-12622000D02*
X10330000Y-12774000D01*
X10254000Y-12698000D02*
X10406000Y-12698000D01*
X11014000Y-12684000D02*
X11166000Y-12836000D01*
X11166000Y-12684000D02*
X11014000Y-12836000D01*
X11090000Y-12684000D02*
X11090000Y-12836000D01*
X11014000Y-12760000D02*
X11166000Y-12760000D01*
X11522000Y-12684000D02*
X11674000Y-12836000D01*
X11674000Y-12684000D02*
X11522000Y-12836000D01*
X11598000Y-12684000D02*
X11598000Y-12836000D01*
X11522000Y-12760000D02*
X11674000Y-12760000D01*
X12154000Y-12684000D02*
X12306000Y-12836000D01*
X12306000Y-12684000D02*
X12154000Y-12836000D01*
X12230000Y-12684000D02*
X12230000Y-12836000D01*
X12154000Y-12760000D02*
X12306000Y-12760000D01*
X12662000Y-12684000D02*
X12814000Y-12836000D01*
X12814000Y-12684000D02*
X12662000Y-12836000D01*
X12738000Y-12684000D02*
X12738000Y-12836000D01*
X12662000Y-12760000D02*
X12814000Y-12760000D01*
X13258449Y-12681799D02*
X13410449Y-12833799D01*
X13410449Y-12681799D02*
X13258449Y-12833799D01*
X13334449Y-12681799D02*
X13334449Y-12833799D01*
X13258449Y-12757799D02*
X13410449Y-12757799D01*
X13766449Y-12681799D02*
X13918449Y-12833799D01*
X13918449Y-12681799D02*
X13766449Y-12833799D01*
X13842449Y-12681799D02*
X13842449Y-12833799D01*
X13766449Y-12757799D02*
X13918449Y-12757799D01*
X14353049Y-12681799D02*
X14505049Y-12833799D01*
X14505049Y-12681799D02*
X14353049Y-12833799D01*
X14429049Y-12681799D02*
X14429049Y-12833799D01*
X14353049Y-12757799D02*
X14505049Y-12757799D01*
X14861049Y-12681799D02*
X15013049Y-12833799D01*
X15013049Y-12681799D02*
X14861049Y-12833799D01*
X14937049Y-12681799D02*
X14937049Y-12833799D01*
X14861049Y-12757799D02*
X15013049Y-12757799D01*
X15445249Y-12681799D02*
X15597249Y-12833799D01*
X15597249Y-12681799D02*
X15445249Y-12833799D01*
X15521249Y-12681799D02*
X15521249Y-12833799D01*
X15445249Y-12757799D02*
X15597249Y-12757799D01*
X15953249Y-12681799D02*
X16105249Y-12833799D01*
X16105249Y-12681799D02*
X15953249Y-12833799D01*
X16029249Y-12681799D02*
X16029249Y-12833799D01*
X15953249Y-12757799D02*
X16105249Y-12757799D01*
X16537449Y-12681799D02*
X16689449Y-12833799D01*
X16689449Y-12681799D02*
X16537449Y-12833799D01*
X16613449Y-12681799D02*
X16613449Y-12833799D01*
X16537449Y-12757799D02*
X16689449Y-12757799D01*
X17045449Y-12681799D02*
X17197449Y-12833799D01*
X17197449Y-12681799D02*
X17045449Y-12833799D01*
X17121449Y-12681799D02*
X17121449Y-12833799D01*
X17045449Y-12757799D02*
X17197449Y-12757799D01*
X17813799Y-7126749D02*
X17965799Y-7278749D01*
X17965799Y-7126749D02*
X17813799Y-7278749D01*
X17889799Y-7126749D02*
X17889799Y-7278749D01*
X17813799Y-7202749D02*
X17965799Y-7202749D01*
X17813799Y-7634749D02*
X17965799Y-7786749D01*
X17965799Y-7634749D02*
X17813799Y-7786749D01*
X17889799Y-7634749D02*
X17889799Y-7786749D01*
X17813799Y-7710749D02*
X17965799Y-7710749D01*
X17813799Y-8142749D02*
X17965799Y-8294749D01*
X17965799Y-8142749D02*
X17813799Y-8294749D01*
X17889799Y-8142749D02*
X17889799Y-8294749D01*
X17813799Y-8218749D02*
X17965799Y-8218749D01*
X17813799Y-8650749D02*
X17965799Y-8802749D01*
X17965799Y-8650749D02*
X17813799Y-8802749D01*
X17889799Y-8650749D02*
X17889799Y-8802749D01*
X17813799Y-8726749D02*
X17965799Y-8726749D01*
X17813799Y-9158749D02*
X17965799Y-9310749D01*
X17965799Y-9158749D02*
X17813799Y-9310749D01*
X17889799Y-9158749D02*
X17889799Y-9310749D01*
X17813799Y-9234749D02*
X17965799Y-9234749D01*
X17813799Y-9666749D02*
X17965799Y-9818749D01*
X17965799Y-9666749D02*
X17813799Y-9818749D01*
X17889799Y-9666749D02*
X17889799Y-9818749D01*
X17813799Y-9742749D02*
X17965799Y-9742749D01*
X17813799Y-10276349D02*
X17965799Y-10428349D01*
X17965799Y-10276349D02*
X17813799Y-10428349D01*
X17889799Y-10276349D02*
X17889799Y-10428349D01*
X17813799Y-10352349D02*
X17965799Y-10352349D01*
X17813799Y-10784349D02*
X17965799Y-10936349D01*
X17965799Y-10784349D02*
X17813799Y-10936349D01*
X17889799Y-10784349D02*
X17889799Y-10936349D01*
X17813799Y-10860349D02*
X17965799Y-10860349D01*
X17813799Y-11292349D02*
X17965799Y-11444349D01*
X17965799Y-11292349D02*
X17813799Y-11444349D01*
X17889799Y-11292349D02*
X17889799Y-11444349D01*
X17813799Y-11368349D02*
X17965799Y-11368349D01*
X17813799Y-11800349D02*
X17965799Y-11952349D01*
X17965799Y-11800349D02*
X17813799Y-11952349D01*
X17889799Y-11800349D02*
X17889799Y-11952349D01*
X17813799Y-11876349D02*
X17965799Y-11876349D01*
X17813799Y-12308349D02*
X17965799Y-12460349D01*
X17965799Y-12308349D02*
X17813799Y-12460349D01*
X17889799Y-12308349D02*
X17889799Y-12460349D01*
X17813799Y-12384349D02*
X17965799Y-12384349D01*
X17813799Y-12816349D02*
X17965799Y-12968349D01*
X17965799Y-12816349D02*
X17813799Y-12968349D01*
X17889799Y-12816349D02*
X17889799Y-12968349D01*
X17813799Y-12892349D02*
X17965799Y-12892349D01*
D11*
X9950918Y-14185725D02*
X9950918Y-13985725D01*
X9998537Y-13985725D01*
X10027108Y-13995249D01*
X10046156Y-14014296D01*
X10055680Y-14033344D01*
X10065204Y-14071439D01*
X10065204Y-14100011D01*
X10055680Y-14138106D01*
X10046156Y-14157154D01*
X10027108Y-14176201D01*
X9998537Y-14185725D01*
X9950918Y-14185725D01*
X10150918Y-14185725D02*
X10150918Y-14052392D01*
X10150918Y-14090487D02*
X10160442Y-14071439D01*
X10169966Y-14061915D01*
X10189013Y-14052392D01*
X10208061Y-14052392D01*
X10274727Y-14185725D02*
X10274727Y-14052392D01*
X10274727Y-13985725D02*
X10265204Y-13995249D01*
X10274727Y-14004773D01*
X10284251Y-13995249D01*
X10274727Y-13985725D01*
X10274727Y-14004773D01*
X10398537Y-14185725D02*
X10379489Y-14176201D01*
X10369966Y-14157154D01*
X10369966Y-13985725D01*
X10503299Y-14185725D02*
X10484251Y-14176201D01*
X10474727Y-14157154D01*
X10474727Y-13985725D01*
X10731870Y-14185725D02*
X10731870Y-13985725D01*
X10798537Y-14128582D01*
X10865204Y-13985725D01*
X10865204Y-14185725D01*
X11046156Y-14185725D02*
X11046156Y-14080963D01*
X11036632Y-14061915D01*
X11017585Y-14052392D01*
X10979489Y-14052392D01*
X10960442Y-14061915D01*
X11046156Y-14176201D02*
X11027108Y-14185725D01*
X10979489Y-14185725D01*
X10960442Y-14176201D01*
X10950918Y-14157154D01*
X10950918Y-14138106D01*
X10960442Y-14119058D01*
X10979489Y-14109535D01*
X11027108Y-14109535D01*
X11046156Y-14100011D01*
X11141394Y-14052392D02*
X11141394Y-14252392D01*
X11141394Y-14061915D02*
X11160442Y-14052392D01*
X11198537Y-14052392D01*
X11217585Y-14061915D01*
X11227108Y-14071439D01*
X11236632Y-14090487D01*
X11236632Y-14147630D01*
X11227108Y-14166677D01*
X11217585Y-14176201D01*
X11198537Y-14185725D01*
X11160442Y-14185725D01*
X11141394Y-14176201D01*
X11322346Y-14166677D02*
X11331870Y-14176201D01*
X11322346Y-14185725D01*
X11312823Y-14176201D01*
X11322346Y-14166677D01*
X11322346Y-14185725D01*
X11322346Y-14061915D02*
X11331870Y-14071439D01*
X11322346Y-14080963D01*
X11312823Y-14071439D01*
X11322346Y-14061915D01*
X11322346Y-14080963D01*
D12*
X9653299Y-14495249D02*
X9693299Y-14535249D01*
X9693299Y-14495249D02*
X9653299Y-14535249D01*
D11*
X9989013Y-14405725D02*
X10008061Y-14405725D01*
X10027108Y-14415249D01*
X10036632Y-14424773D01*
X10046156Y-14443820D01*
X10055680Y-14481915D01*
X10055680Y-14529535D01*
X10046156Y-14567630D01*
X10036632Y-14586677D01*
X10027108Y-14596201D01*
X10008061Y-14605725D01*
X9989013Y-14605725D01*
X9969966Y-14596201D01*
X9960442Y-14586677D01*
X9950918Y-14567630D01*
X9941394Y-14529535D01*
X9941394Y-14481915D01*
X9950918Y-14443820D01*
X9960442Y-14424773D01*
X9969966Y-14415249D01*
X9989013Y-14405725D01*
X10141394Y-14586677D02*
X10150918Y-14596201D01*
X10141394Y-14605725D01*
X10131870Y-14596201D01*
X10141394Y-14586677D01*
X10141394Y-14605725D01*
X10322347Y-14472392D02*
X10322347Y-14605725D01*
X10274727Y-14396201D02*
X10227108Y-14539058D01*
X10350918Y-14539058D01*
X10465204Y-14405725D02*
X10484251Y-14405725D01*
X10503299Y-14415249D01*
X10512823Y-14424773D01*
X10522347Y-14443820D01*
X10531870Y-14481915D01*
X10531870Y-14529535D01*
X10522347Y-14567630D01*
X10512823Y-14586677D01*
X10503299Y-14596201D01*
X10484251Y-14605725D01*
X10465204Y-14605725D01*
X10446156Y-14596201D01*
X10436632Y-14586677D01*
X10427108Y-14567630D01*
X10417585Y-14529535D01*
X10417585Y-14481915D01*
X10427108Y-14443820D01*
X10436632Y-14424773D01*
X10446156Y-14415249D01*
X10465204Y-14405725D01*
X10655680Y-14405725D02*
X10674727Y-14405725D01*
X10693775Y-14415249D01*
X10703299Y-14424773D01*
X10712823Y-14443820D01*
X10722347Y-14481915D01*
X10722347Y-14529535D01*
X10712823Y-14567630D01*
X10703299Y-14586677D01*
X10693775Y-14596201D01*
X10674727Y-14605725D01*
X10655680Y-14605725D01*
X10636632Y-14596201D01*
X10627108Y-14586677D01*
X10617585Y-14567630D01*
X10608061Y-14529535D01*
X10608061Y-14481915D01*
X10617585Y-14443820D01*
X10627108Y-14424773D01*
X10636632Y-14415249D01*
X10655680Y-14405725D01*
X10808061Y-14605725D02*
X10808061Y-14472392D01*
X10808061Y-14491439D02*
X10817585Y-14481915D01*
X10836632Y-14472392D01*
X10865204Y-14472392D01*
X10884251Y-14481915D01*
X10893775Y-14500963D01*
X10893775Y-14605725D01*
X10893775Y-14500963D02*
X10903299Y-14481915D01*
X10922347Y-14472392D01*
X10950918Y-14472392D01*
X10969966Y-14481915D01*
X10979489Y-14500963D01*
X10979489Y-14605725D01*
X11074727Y-14605725D02*
X11074727Y-14472392D01*
X11074727Y-14491439D02*
X11084251Y-14481915D01*
X11103299Y-14472392D01*
X11131870Y-14472392D01*
X11150918Y-14481915D01*
X11160442Y-14500963D01*
X11160442Y-14605725D01*
X11160442Y-14500963D02*
X11169966Y-14481915D01*
X11189013Y-14472392D01*
X11217585Y-14472392D01*
X11236632Y-14481915D01*
X11246156Y-14500963D01*
X11246156Y-14605725D01*
X11636632Y-14396201D02*
X11465204Y-14653344D01*
X11893775Y-14405725D02*
X11912823Y-14405725D01*
X11931870Y-14415249D01*
X11941394Y-14424773D01*
X11950918Y-14443820D01*
X11960442Y-14481915D01*
X11960442Y-14529535D01*
X11950918Y-14567630D01*
X11941394Y-14586677D01*
X11931870Y-14596201D01*
X11912823Y-14605725D01*
X11893775Y-14605725D01*
X11874727Y-14596201D01*
X11865204Y-14586677D01*
X11855680Y-14567630D01*
X11846156Y-14529535D01*
X11846156Y-14481915D01*
X11855680Y-14443820D01*
X11865204Y-14424773D01*
X11874727Y-14415249D01*
X11893775Y-14405725D01*
X12046156Y-14586677D02*
X12055680Y-14596201D01*
X12046156Y-14605725D01*
X12036632Y-14596201D01*
X12046156Y-14586677D01*
X12046156Y-14605725D01*
X12179489Y-14405725D02*
X12198537Y-14405725D01*
X12217585Y-14415249D01*
X12227108Y-14424773D01*
X12236632Y-14443820D01*
X12246156Y-14481915D01*
X12246156Y-14529535D01*
X12236632Y-14567630D01*
X12227108Y-14586677D01*
X12217585Y-14596201D01*
X12198537Y-14605725D01*
X12179489Y-14605725D01*
X12160442Y-14596201D01*
X12150918Y-14586677D01*
X12141394Y-14567630D01*
X12131870Y-14529535D01*
X12131870Y-14481915D01*
X12141394Y-14443820D01*
X12150918Y-14424773D01*
X12160442Y-14415249D01*
X12179489Y-14405725D01*
X12436632Y-14605725D02*
X12322346Y-14605725D01*
X12379489Y-14605725D02*
X12379489Y-14405725D01*
X12360442Y-14434296D01*
X12341394Y-14453344D01*
X12322346Y-14462868D01*
X12617585Y-14405725D02*
X12522346Y-14405725D01*
X12512823Y-14500963D01*
X12522346Y-14491439D01*
X12541394Y-14481915D01*
X12589013Y-14481915D01*
X12608061Y-14491439D01*
X12617585Y-14500963D01*
X12627108Y-14520011D01*
X12627108Y-14567630D01*
X12617585Y-14586677D01*
X12608061Y-14596201D01*
X12589013Y-14605725D01*
X12541394Y-14605725D01*
X12522346Y-14596201D01*
X12512823Y-14586677D01*
X12693775Y-14405725D02*
X12827108Y-14405725D01*
X12741394Y-14605725D01*
X12893775Y-14405725D02*
X12893775Y-14443820D01*
X12969965Y-14405725D02*
X12969965Y-14443820D01*
X13265204Y-14681915D02*
X13255680Y-14672392D01*
X13236632Y-14643820D01*
X13227108Y-14624773D01*
X13217585Y-14596201D01*
X13208061Y-14548582D01*
X13208061Y-14510487D01*
X13217585Y-14462868D01*
X13227108Y-14434296D01*
X13236632Y-14415249D01*
X13255680Y-14386677D01*
X13265204Y-14377154D01*
X13446156Y-14605725D02*
X13331870Y-14605725D01*
X13389013Y-14605725D02*
X13389013Y-14405725D01*
X13369965Y-14434296D01*
X13350918Y-14453344D01*
X13331870Y-14462868D01*
X13684251Y-14605725D02*
X13684251Y-14405725D01*
X13769965Y-14605725D02*
X13769965Y-14500963D01*
X13760442Y-14481915D01*
X13741394Y-14472392D01*
X13712823Y-14472392D01*
X13693775Y-14481915D01*
X13684251Y-14491439D01*
X13893775Y-14605725D02*
X13874727Y-14596201D01*
X13865204Y-14586677D01*
X13855680Y-14567630D01*
X13855680Y-14510487D01*
X13865204Y-14491439D01*
X13874727Y-14481915D01*
X13893775Y-14472392D01*
X13922346Y-14472392D01*
X13941394Y-14481915D01*
X13950918Y-14491439D01*
X13960442Y-14510487D01*
X13960442Y-14567630D01*
X13950918Y-14586677D01*
X13941394Y-14596201D01*
X13922346Y-14605725D01*
X13893775Y-14605725D01*
X14074727Y-14605725D02*
X14055680Y-14596201D01*
X14046156Y-14577154D01*
X14046156Y-14405725D01*
X14227108Y-14596201D02*
X14208061Y-14605725D01*
X14169965Y-14605725D01*
X14150918Y-14596201D01*
X14141394Y-14577154D01*
X14141394Y-14500963D01*
X14150918Y-14481915D01*
X14169965Y-14472392D01*
X14208061Y-14472392D01*
X14227108Y-14481915D01*
X14236632Y-14500963D01*
X14236632Y-14520011D01*
X14141394Y-14539058D01*
X14303299Y-14681915D02*
X14312823Y-14672392D01*
X14331870Y-14643820D01*
X14341394Y-14624773D01*
X14350918Y-14596201D01*
X14360442Y-14548582D01*
X14360442Y-14510487D01*
X14350918Y-14462868D01*
X14341394Y-14434296D01*
X14331870Y-14415249D01*
X14312823Y-14386677D01*
X14303299Y-14377154D01*
D13*
X9693299Y-14779249D02*
G75*
G03*
X9693299Y-14779249I-30000J0D01*
G01*
D11*
X9989013Y-14669725D02*
X10008061Y-14669725D01*
X10027108Y-14679249D01*
X10036632Y-14688773D01*
X10046156Y-14707820D01*
X10055680Y-14745915D01*
X10055680Y-14793535D01*
X10046156Y-14831630D01*
X10036632Y-14850677D01*
X10027108Y-14860201D01*
X10008061Y-14869725D01*
X9989013Y-14869725D01*
X9969966Y-14860201D01*
X9960442Y-14850677D01*
X9950918Y-14831630D01*
X9941394Y-14793535D01*
X9941394Y-14745915D01*
X9950918Y-14707820D01*
X9960442Y-14688773D01*
X9969966Y-14679249D01*
X9989013Y-14669725D01*
X10141394Y-14850677D02*
X10150918Y-14860201D01*
X10141394Y-14869725D01*
X10131870Y-14860201D01*
X10141394Y-14850677D01*
X10141394Y-14869725D01*
X10322347Y-14669725D02*
X10284251Y-14669725D01*
X10265204Y-14679249D01*
X10255680Y-14688773D01*
X10236632Y-14717344D01*
X10227108Y-14755439D01*
X10227108Y-14831630D01*
X10236632Y-14850677D01*
X10246156Y-14860201D01*
X10265204Y-14869725D01*
X10303299Y-14869725D01*
X10322347Y-14860201D01*
X10331870Y-14850677D01*
X10341394Y-14831630D01*
X10341394Y-14784011D01*
X10331870Y-14764963D01*
X10322347Y-14755439D01*
X10303299Y-14745915D01*
X10265204Y-14745915D01*
X10246156Y-14755439D01*
X10236632Y-14764963D01*
X10227108Y-14784011D01*
X10465204Y-14669725D02*
X10484251Y-14669725D01*
X10503299Y-14679249D01*
X10512823Y-14688773D01*
X10522347Y-14707820D01*
X10531870Y-14745915D01*
X10531870Y-14793535D01*
X10522347Y-14831630D01*
X10512823Y-14850677D01*
X10503299Y-14860201D01*
X10484251Y-14869725D01*
X10465204Y-14869725D01*
X10446156Y-14860201D01*
X10436632Y-14850677D01*
X10427108Y-14831630D01*
X10417585Y-14793535D01*
X10417585Y-14745915D01*
X10427108Y-14707820D01*
X10436632Y-14688773D01*
X10446156Y-14679249D01*
X10465204Y-14669725D01*
X10655680Y-14669725D02*
X10674727Y-14669725D01*
X10693775Y-14679249D01*
X10703299Y-14688773D01*
X10712823Y-14707820D01*
X10722347Y-14745915D01*
X10722347Y-14793535D01*
X10712823Y-14831630D01*
X10703299Y-14850677D01*
X10693775Y-14860201D01*
X10674727Y-14869725D01*
X10655680Y-14869725D01*
X10636632Y-14860201D01*
X10627108Y-14850677D01*
X10617585Y-14831630D01*
X10608061Y-14793535D01*
X10608061Y-14745915D01*
X10617585Y-14707820D01*
X10627108Y-14688773D01*
X10636632Y-14679249D01*
X10655680Y-14669725D01*
X10808061Y-14869725D02*
X10808061Y-14736392D01*
X10808061Y-14755439D02*
X10817585Y-14745915D01*
X10836632Y-14736392D01*
X10865204Y-14736392D01*
X10884251Y-14745915D01*
X10893775Y-14764963D01*
X10893775Y-14869725D01*
X10893775Y-14764963D02*
X10903299Y-14745915D01*
X10922347Y-14736392D01*
X10950918Y-14736392D01*
X10969966Y-14745915D01*
X10979489Y-14764963D01*
X10979489Y-14869725D01*
X11074727Y-14869725D02*
X11074727Y-14736392D01*
X11074727Y-14755439D02*
X11084251Y-14745915D01*
X11103299Y-14736392D01*
X11131870Y-14736392D01*
X11150918Y-14745915D01*
X11160442Y-14764963D01*
X11160442Y-14869725D01*
X11160442Y-14764963D02*
X11169966Y-14745915D01*
X11189013Y-14736392D01*
X11217585Y-14736392D01*
X11236632Y-14745915D01*
X11246156Y-14764963D01*
X11246156Y-14869725D01*
X11636632Y-14660201D02*
X11465204Y-14917344D01*
X11893775Y-14669725D02*
X11912823Y-14669725D01*
X11931870Y-14679249D01*
X11941394Y-14688773D01*
X11950918Y-14707820D01*
X11960442Y-14745915D01*
X11960442Y-14793535D01*
X11950918Y-14831630D01*
X11941394Y-14850677D01*
X11931870Y-14860201D01*
X11912823Y-14869725D01*
X11893775Y-14869725D01*
X11874727Y-14860201D01*
X11865204Y-14850677D01*
X11855680Y-14831630D01*
X11846156Y-14793535D01*
X11846156Y-14745915D01*
X11855680Y-14707820D01*
X11865204Y-14688773D01*
X11874727Y-14679249D01*
X11893775Y-14669725D01*
X12046156Y-14850677D02*
X12055680Y-14860201D01*
X12046156Y-14869725D01*
X12036632Y-14860201D01*
X12046156Y-14850677D01*
X12046156Y-14869725D01*
X12179489Y-14669725D02*
X12198537Y-14669725D01*
X12217585Y-14679249D01*
X12227108Y-14688773D01*
X12236632Y-14707820D01*
X12246156Y-14745915D01*
X12246156Y-14793535D01*
X12236632Y-14831630D01*
X12227108Y-14850677D01*
X12217585Y-14860201D01*
X12198537Y-14869725D01*
X12179489Y-14869725D01*
X12160442Y-14860201D01*
X12150918Y-14850677D01*
X12141394Y-14831630D01*
X12131870Y-14793535D01*
X12131870Y-14745915D01*
X12141394Y-14707820D01*
X12150918Y-14688773D01*
X12160442Y-14679249D01*
X12179489Y-14669725D01*
X12322346Y-14688773D02*
X12331870Y-14679249D01*
X12350918Y-14669725D01*
X12398537Y-14669725D01*
X12417585Y-14679249D01*
X12427108Y-14688773D01*
X12436632Y-14707820D01*
X12436632Y-14726868D01*
X12427108Y-14755439D01*
X12312823Y-14869725D01*
X12436632Y-14869725D01*
X12503299Y-14669725D02*
X12627108Y-14669725D01*
X12560442Y-14745915D01*
X12589013Y-14745915D01*
X12608061Y-14755439D01*
X12617585Y-14764963D01*
X12627108Y-14784011D01*
X12627108Y-14831630D01*
X12617585Y-14850677D01*
X12608061Y-14860201D01*
X12589013Y-14869725D01*
X12531870Y-14869725D01*
X12512823Y-14860201D01*
X12503299Y-14850677D01*
X12798537Y-14669725D02*
X12760442Y-14669725D01*
X12741394Y-14679249D01*
X12731870Y-14688773D01*
X12712823Y-14717344D01*
X12703299Y-14755439D01*
X12703299Y-14831630D01*
X12712823Y-14850677D01*
X12722346Y-14860201D01*
X12741394Y-14869725D01*
X12779489Y-14869725D01*
X12798537Y-14860201D01*
X12808061Y-14850677D01*
X12817585Y-14831630D01*
X12817585Y-14784011D01*
X12808061Y-14764963D01*
X12798537Y-14755439D01*
X12779489Y-14745915D01*
X12741394Y-14745915D01*
X12722346Y-14755439D01*
X12712823Y-14764963D01*
X12703299Y-14784011D01*
X12893775Y-14669725D02*
X12893775Y-14707820D01*
X12969965Y-14669725D02*
X12969965Y-14707820D01*
X13265204Y-14945915D02*
X13255680Y-14936392D01*
X13236632Y-14907820D01*
X13227108Y-14888773D01*
X13217585Y-14860201D01*
X13208061Y-14812582D01*
X13208061Y-14774487D01*
X13217585Y-14726868D01*
X13227108Y-14698296D01*
X13236632Y-14679249D01*
X13255680Y-14650677D01*
X13265204Y-14641154D01*
X13369965Y-14755439D02*
X13350918Y-14745915D01*
X13341394Y-14736392D01*
X13331870Y-14717344D01*
X13331870Y-14707820D01*
X13341394Y-14688773D01*
X13350918Y-14679249D01*
X13369965Y-14669725D01*
X13408061Y-14669725D01*
X13427108Y-14679249D01*
X13436632Y-14688773D01*
X13446156Y-14707820D01*
X13446156Y-14717344D01*
X13436632Y-14736392D01*
X13427108Y-14745915D01*
X13408061Y-14755439D01*
X13369965Y-14755439D01*
X13350918Y-14764963D01*
X13341394Y-14774487D01*
X13331870Y-14793535D01*
X13331870Y-14831630D01*
X13341394Y-14850677D01*
X13350918Y-14860201D01*
X13369965Y-14869725D01*
X13408061Y-14869725D01*
X13427108Y-14860201D01*
X13436632Y-14850677D01*
X13446156Y-14831630D01*
X13446156Y-14793535D01*
X13436632Y-14774487D01*
X13427108Y-14764963D01*
X13408061Y-14755439D01*
X13684251Y-14869725D02*
X13684251Y-14669725D01*
X13769965Y-14869725D02*
X13769965Y-14764963D01*
X13760442Y-14745915D01*
X13741394Y-14736392D01*
X13712823Y-14736392D01*
X13693775Y-14745915D01*
X13684251Y-14755439D01*
X13893775Y-14869725D02*
X13874727Y-14860201D01*
X13865204Y-14850677D01*
X13855680Y-14831630D01*
X13855680Y-14774487D01*
X13865204Y-14755439D01*
X13874727Y-14745915D01*
X13893775Y-14736392D01*
X13922346Y-14736392D01*
X13941394Y-14745915D01*
X13950918Y-14755439D01*
X13960442Y-14774487D01*
X13960442Y-14831630D01*
X13950918Y-14850677D01*
X13941394Y-14860201D01*
X13922346Y-14869725D01*
X13893775Y-14869725D01*
X14074727Y-14869725D02*
X14055680Y-14860201D01*
X14046156Y-14841154D01*
X14046156Y-14669725D01*
X14227108Y-14860201D02*
X14208061Y-14869725D01*
X14169965Y-14869725D01*
X14150918Y-14860201D01*
X14141394Y-14841154D01*
X14141394Y-14764963D01*
X14150918Y-14745915D01*
X14169965Y-14736392D01*
X14208061Y-14736392D01*
X14227108Y-14745915D01*
X14236632Y-14764963D01*
X14236632Y-14784011D01*
X14141394Y-14803058D01*
X14312823Y-14860201D02*
X14331870Y-14869725D01*
X14369965Y-14869725D01*
X14389013Y-14860201D01*
X14398537Y-14841154D01*
X14398537Y-14831630D01*
X14389013Y-14812582D01*
X14369965Y-14803058D01*
X14341394Y-14803058D01*
X14322346Y-14793535D01*
X14312823Y-14774487D01*
X14312823Y-14764963D01*
X14322346Y-14745915D01*
X14341394Y-14736392D01*
X14369965Y-14736392D01*
X14389013Y-14745915D01*
X14465204Y-14945915D02*
X14474727Y-14936392D01*
X14493775Y-14907820D01*
X14503299Y-14888773D01*
X14512823Y-14860201D01*
X14522346Y-14812582D01*
X14522346Y-14774487D01*
X14512823Y-14726868D01*
X14503299Y-14698296D01*
X14493775Y-14679249D01*
X14474727Y-14650677D01*
X14465204Y-14641154D01*
D14*
X9653299Y-15003249D02*
X9653299Y-15083249D01*
X9613299Y-15043249D02*
X9693299Y-15043249D01*
D11*
X9989013Y-14933725D02*
X10008061Y-14933725D01*
X10027108Y-14943249D01*
X10036632Y-14952773D01*
X10046156Y-14971820D01*
X10055680Y-15009915D01*
X10055680Y-15057535D01*
X10046156Y-15095630D01*
X10036632Y-15114677D01*
X10027108Y-15124201D01*
X10008061Y-15133725D01*
X9989013Y-15133725D01*
X9969966Y-15124201D01*
X9960442Y-15114677D01*
X9950918Y-15095630D01*
X9941394Y-15057535D01*
X9941394Y-15009915D01*
X9950918Y-14971820D01*
X9960442Y-14952773D01*
X9969966Y-14943249D01*
X9989013Y-14933725D01*
X10141394Y-15114677D02*
X10150918Y-15124201D01*
X10141394Y-15133725D01*
X10131870Y-15124201D01*
X10141394Y-15114677D01*
X10141394Y-15133725D01*
X10265204Y-15019439D02*
X10246156Y-15009915D01*
X10236632Y-15000392D01*
X10227108Y-14981344D01*
X10227108Y-14971820D01*
X10236632Y-14952773D01*
X10246156Y-14943249D01*
X10265204Y-14933725D01*
X10303299Y-14933725D01*
X10322347Y-14943249D01*
X10331870Y-14952773D01*
X10341394Y-14971820D01*
X10341394Y-14981344D01*
X10331870Y-15000392D01*
X10322347Y-15009915D01*
X10303299Y-15019439D01*
X10265204Y-15019439D01*
X10246156Y-15028963D01*
X10236632Y-15038487D01*
X10227108Y-15057535D01*
X10227108Y-15095630D01*
X10236632Y-15114677D01*
X10246156Y-15124201D01*
X10265204Y-15133725D01*
X10303299Y-15133725D01*
X10322347Y-15124201D01*
X10331870Y-15114677D01*
X10341394Y-15095630D01*
X10341394Y-15057535D01*
X10331870Y-15038487D01*
X10322347Y-15028963D01*
X10303299Y-15019439D01*
X10465204Y-14933725D02*
X10484251Y-14933725D01*
X10503299Y-14943249D01*
X10512823Y-14952773D01*
X10522347Y-14971820D01*
X10531870Y-15009915D01*
X10531870Y-15057535D01*
X10522347Y-15095630D01*
X10512823Y-15114677D01*
X10503299Y-15124201D01*
X10484251Y-15133725D01*
X10465204Y-15133725D01*
X10446156Y-15124201D01*
X10436632Y-15114677D01*
X10427108Y-15095630D01*
X10417585Y-15057535D01*
X10417585Y-15009915D01*
X10427108Y-14971820D01*
X10436632Y-14952773D01*
X10446156Y-14943249D01*
X10465204Y-14933725D01*
X10655680Y-14933725D02*
X10674727Y-14933725D01*
X10693775Y-14943249D01*
X10703299Y-14952773D01*
X10712823Y-14971820D01*
X10722347Y-15009915D01*
X10722347Y-15057535D01*
X10712823Y-15095630D01*
X10703299Y-15114677D01*
X10693775Y-15124201D01*
X10674727Y-15133725D01*
X10655680Y-15133725D01*
X10636632Y-15124201D01*
X10627108Y-15114677D01*
X10617585Y-15095630D01*
X10608061Y-15057535D01*
X10608061Y-15009915D01*
X10617585Y-14971820D01*
X10627108Y-14952773D01*
X10636632Y-14943249D01*
X10655680Y-14933725D01*
X10808061Y-15133725D02*
X10808061Y-15000392D01*
X10808061Y-15019439D02*
X10817585Y-15009915D01*
X10836632Y-15000392D01*
X10865204Y-15000392D01*
X10884251Y-15009915D01*
X10893775Y-15028963D01*
X10893775Y-15133725D01*
X10893775Y-15028963D02*
X10903299Y-15009915D01*
X10922347Y-15000392D01*
X10950918Y-15000392D01*
X10969966Y-15009915D01*
X10979489Y-15028963D01*
X10979489Y-15133725D01*
X11074727Y-15133725D02*
X11074727Y-15000392D01*
X11074727Y-15019439D02*
X11084251Y-15009915D01*
X11103299Y-15000392D01*
X11131870Y-15000392D01*
X11150918Y-15009915D01*
X11160442Y-15028963D01*
X11160442Y-15133725D01*
X11160442Y-15028963D02*
X11169966Y-15009915D01*
X11189013Y-15000392D01*
X11217585Y-15000392D01*
X11236632Y-15009915D01*
X11246156Y-15028963D01*
X11246156Y-15133725D01*
X11636632Y-14924201D02*
X11465204Y-15181344D01*
X11893775Y-14933725D02*
X11912823Y-14933725D01*
X11931870Y-14943249D01*
X11941394Y-14952773D01*
X11950918Y-14971820D01*
X11960442Y-15009915D01*
X11960442Y-15057535D01*
X11950918Y-15095630D01*
X11941394Y-15114677D01*
X11931870Y-15124201D01*
X11912823Y-15133725D01*
X11893775Y-15133725D01*
X11874727Y-15124201D01*
X11865204Y-15114677D01*
X11855680Y-15095630D01*
X11846156Y-15057535D01*
X11846156Y-15009915D01*
X11855680Y-14971820D01*
X11865204Y-14952773D01*
X11874727Y-14943249D01*
X11893775Y-14933725D01*
X12046156Y-15114677D02*
X12055680Y-15124201D01*
X12046156Y-15133725D01*
X12036632Y-15124201D01*
X12046156Y-15114677D01*
X12046156Y-15133725D01*
X12179489Y-14933725D02*
X12198537Y-14933725D01*
X12217585Y-14943249D01*
X12227108Y-14952773D01*
X12236632Y-14971820D01*
X12246156Y-15009915D01*
X12246156Y-15057535D01*
X12236632Y-15095630D01*
X12227108Y-15114677D01*
X12217585Y-15124201D01*
X12198537Y-15133725D01*
X12179489Y-15133725D01*
X12160442Y-15124201D01*
X12150918Y-15114677D01*
X12141394Y-15095630D01*
X12131870Y-15057535D01*
X12131870Y-15009915D01*
X12141394Y-14971820D01*
X12150918Y-14952773D01*
X12160442Y-14943249D01*
X12179489Y-14933725D01*
X12312823Y-14933725D02*
X12436632Y-14933725D01*
X12369965Y-15009915D01*
X12398537Y-15009915D01*
X12417585Y-15019439D01*
X12427108Y-15028963D01*
X12436632Y-15048011D01*
X12436632Y-15095630D01*
X12427108Y-15114677D01*
X12417585Y-15124201D01*
X12398537Y-15133725D01*
X12341394Y-15133725D01*
X12322346Y-15124201D01*
X12312823Y-15114677D01*
X12627108Y-15133725D02*
X12512823Y-15133725D01*
X12569965Y-15133725D02*
X12569965Y-14933725D01*
X12550918Y-14962296D01*
X12531870Y-14981344D01*
X12512823Y-14990868D01*
X12808061Y-14933725D02*
X12712823Y-14933725D01*
X12703299Y-15028963D01*
X12712823Y-15019439D01*
X12731870Y-15009915D01*
X12779489Y-15009915D01*
X12798537Y-15019439D01*
X12808061Y-15028963D01*
X12817585Y-15048011D01*
X12817585Y-15095630D01*
X12808061Y-15114677D01*
X12798537Y-15124201D01*
X12779489Y-15133725D01*
X12731870Y-15133725D01*
X12712823Y-15124201D01*
X12703299Y-15114677D01*
X12893775Y-14933725D02*
X12893775Y-14971820D01*
X12969965Y-14933725D02*
X12969965Y-14971820D01*
X13265204Y-15209915D02*
X13255680Y-15200392D01*
X13236632Y-15171820D01*
X13227108Y-15152773D01*
X13217585Y-15124201D01*
X13208061Y-15076582D01*
X13208061Y-15038487D01*
X13217585Y-14990868D01*
X13227108Y-14962296D01*
X13236632Y-14943249D01*
X13255680Y-14914677D01*
X13265204Y-14905154D01*
X13331870Y-14952773D02*
X13341394Y-14943249D01*
X13360442Y-14933725D01*
X13408061Y-14933725D01*
X13427108Y-14943249D01*
X13436632Y-14952773D01*
X13446156Y-14971820D01*
X13446156Y-14990868D01*
X13436632Y-15019439D01*
X13322346Y-15133725D01*
X13446156Y-15133725D01*
X13617585Y-14933725D02*
X13579489Y-14933725D01*
X13560442Y-14943249D01*
X13550918Y-14952773D01*
X13531870Y-14981344D01*
X13522346Y-15019439D01*
X13522346Y-15095630D01*
X13531870Y-15114677D01*
X13541394Y-15124201D01*
X13560442Y-15133725D01*
X13598537Y-15133725D01*
X13617585Y-15124201D01*
X13627108Y-15114677D01*
X13636632Y-15095630D01*
X13636632Y-15048011D01*
X13627108Y-15028963D01*
X13617585Y-15019439D01*
X13598537Y-15009915D01*
X13560442Y-15009915D01*
X13541394Y-15019439D01*
X13531870Y-15028963D01*
X13522346Y-15048011D01*
X13874727Y-15133725D02*
X13874727Y-14933725D01*
X13960442Y-15133725D02*
X13960442Y-15028963D01*
X13950918Y-15009915D01*
X13931870Y-15000392D01*
X13903299Y-15000392D01*
X13884251Y-15009915D01*
X13874727Y-15019439D01*
X14084251Y-15133725D02*
X14065204Y-15124201D01*
X14055680Y-15114677D01*
X14046156Y-15095630D01*
X14046156Y-15038487D01*
X14055680Y-15019439D01*
X14065204Y-15009915D01*
X14084251Y-15000392D01*
X14112823Y-15000392D01*
X14131870Y-15009915D01*
X14141394Y-15019439D01*
X14150918Y-15038487D01*
X14150918Y-15095630D01*
X14141394Y-15114677D01*
X14131870Y-15124201D01*
X14112823Y-15133725D01*
X14084251Y-15133725D01*
X14265204Y-15133725D02*
X14246156Y-15124201D01*
X14236632Y-15105154D01*
X14236632Y-14933725D01*
X14417585Y-15124201D02*
X14398537Y-15133725D01*
X14360442Y-15133725D01*
X14341394Y-15124201D01*
X14331870Y-15105154D01*
X14331870Y-15028963D01*
X14341394Y-15009915D01*
X14360442Y-15000392D01*
X14398537Y-15000392D01*
X14417585Y-15009915D01*
X14427108Y-15028963D01*
X14427108Y-15048011D01*
X14331870Y-15067058D01*
X14503299Y-15124201D02*
X14522346Y-15133725D01*
X14560442Y-15133725D01*
X14579489Y-15124201D01*
X14589013Y-15105154D01*
X14589013Y-15095630D01*
X14579489Y-15076582D01*
X14560442Y-15067058D01*
X14531870Y-15067058D01*
X14512823Y-15057535D01*
X14503299Y-15038487D01*
X14503299Y-15028963D01*
X14512823Y-15009915D01*
X14531870Y-15000392D01*
X14560442Y-15000392D01*
X14579489Y-15009915D01*
X14655680Y-15209915D02*
X14665204Y-15200392D01*
X14684251Y-15171820D01*
X14693775Y-15152773D01*
X14703299Y-15124201D01*
X14712823Y-15076582D01*
X14712823Y-15038487D01*
X14703299Y-14990868D01*
X14693775Y-14962296D01*
X14684251Y-14943249D01*
X14665204Y-14914677D01*
X14655680Y-14905154D01*
D15*
X9680119Y-15339069D02*
X9680119Y-15275429D01*
X9616479Y-15275429D01*
X9616479Y-15339069D01*
X9680119Y-15339069D01*
D11*
X9989013Y-15197725D02*
X10008061Y-15197725D01*
X10027108Y-15207249D01*
X10036632Y-15216773D01*
X10046156Y-15235820D01*
X10055680Y-15273915D01*
X10055680Y-15321535D01*
X10046156Y-15359630D01*
X10036632Y-15378677D01*
X10027108Y-15388201D01*
X10008061Y-15397725D01*
X9989013Y-15397725D01*
X9969966Y-15388201D01*
X9960442Y-15378677D01*
X9950918Y-15359630D01*
X9941394Y-15321535D01*
X9941394Y-15273915D01*
X9950918Y-15235820D01*
X9960442Y-15216773D01*
X9969966Y-15207249D01*
X9989013Y-15197725D01*
X10141394Y-15378677D02*
X10150918Y-15388201D01*
X10141394Y-15397725D01*
X10131870Y-15388201D01*
X10141394Y-15378677D01*
X10141394Y-15397725D01*
X10246156Y-15397725D02*
X10284251Y-15397725D01*
X10303299Y-15388201D01*
X10312823Y-15378677D01*
X10331870Y-15350106D01*
X10341394Y-15312011D01*
X10341394Y-15235820D01*
X10331870Y-15216773D01*
X10322347Y-15207249D01*
X10303299Y-15197725D01*
X10265204Y-15197725D01*
X10246156Y-15207249D01*
X10236632Y-15216773D01*
X10227108Y-15235820D01*
X10227108Y-15283439D01*
X10236632Y-15302487D01*
X10246156Y-15312011D01*
X10265204Y-15321535D01*
X10303299Y-15321535D01*
X10322347Y-15312011D01*
X10331870Y-15302487D01*
X10341394Y-15283439D01*
X10465204Y-15197725D02*
X10484251Y-15197725D01*
X10503299Y-15207249D01*
X10512823Y-15216773D01*
X10522347Y-15235820D01*
X10531870Y-15273915D01*
X10531870Y-15321535D01*
X10522347Y-15359630D01*
X10512823Y-15378677D01*
X10503299Y-15388201D01*
X10484251Y-15397725D01*
X10465204Y-15397725D01*
X10446156Y-15388201D01*
X10436632Y-15378677D01*
X10427108Y-15359630D01*
X10417585Y-15321535D01*
X10417585Y-15273915D01*
X10427108Y-15235820D01*
X10436632Y-15216773D01*
X10446156Y-15207249D01*
X10465204Y-15197725D01*
X10655680Y-15197725D02*
X10674727Y-15197725D01*
X10693775Y-15207249D01*
X10703299Y-15216773D01*
X10712823Y-15235820D01*
X10722347Y-15273915D01*
X10722347Y-15321535D01*
X10712823Y-15359630D01*
X10703299Y-15378677D01*
X10693775Y-15388201D01*
X10674727Y-15397725D01*
X10655680Y-15397725D01*
X10636632Y-15388201D01*
X10627108Y-15378677D01*
X10617585Y-15359630D01*
X10608061Y-15321535D01*
X10608061Y-15273915D01*
X10617585Y-15235820D01*
X10627108Y-15216773D01*
X10636632Y-15207249D01*
X10655680Y-15197725D01*
X10808061Y-15397725D02*
X10808061Y-15264392D01*
X10808061Y-15283439D02*
X10817585Y-15273915D01*
X10836632Y-15264392D01*
X10865204Y-15264392D01*
X10884251Y-15273915D01*
X10893775Y-15292963D01*
X10893775Y-15397725D01*
X10893775Y-15292963D02*
X10903299Y-15273915D01*
X10922347Y-15264392D01*
X10950918Y-15264392D01*
X10969966Y-15273915D01*
X10979489Y-15292963D01*
X10979489Y-15397725D01*
X11074727Y-15397725D02*
X11074727Y-15264392D01*
X11074727Y-15283439D02*
X11084251Y-15273915D01*
X11103299Y-15264392D01*
X11131870Y-15264392D01*
X11150918Y-15273915D01*
X11160442Y-15292963D01*
X11160442Y-15397725D01*
X11160442Y-15292963D02*
X11169966Y-15273915D01*
X11189013Y-15264392D01*
X11217585Y-15264392D01*
X11236632Y-15273915D01*
X11246156Y-15292963D01*
X11246156Y-15397725D01*
X11636632Y-15188201D02*
X11465204Y-15445344D01*
X11893775Y-15197725D02*
X11912823Y-15197725D01*
X11931870Y-15207249D01*
X11941394Y-15216773D01*
X11950918Y-15235820D01*
X11960442Y-15273915D01*
X11960442Y-15321535D01*
X11950918Y-15359630D01*
X11941394Y-15378677D01*
X11931870Y-15388201D01*
X11912823Y-15397725D01*
X11893775Y-15397725D01*
X11874727Y-15388201D01*
X11865204Y-15378677D01*
X11855680Y-15359630D01*
X11846156Y-15321535D01*
X11846156Y-15273915D01*
X11855680Y-15235820D01*
X11865204Y-15216773D01*
X11874727Y-15207249D01*
X11893775Y-15197725D01*
X12046156Y-15378677D02*
X12055680Y-15388201D01*
X12046156Y-15397725D01*
X12036632Y-15388201D01*
X12046156Y-15378677D01*
X12046156Y-15397725D01*
X12179489Y-15197725D02*
X12198537Y-15197725D01*
X12217585Y-15207249D01*
X12227108Y-15216773D01*
X12236632Y-15235820D01*
X12246156Y-15273915D01*
X12246156Y-15321535D01*
X12236632Y-15359630D01*
X12227108Y-15378677D01*
X12217585Y-15388201D01*
X12198537Y-15397725D01*
X12179489Y-15397725D01*
X12160442Y-15388201D01*
X12150918Y-15378677D01*
X12141394Y-15359630D01*
X12131870Y-15321535D01*
X12131870Y-15273915D01*
X12141394Y-15235820D01*
X12150918Y-15216773D01*
X12160442Y-15207249D01*
X12179489Y-15197725D01*
X12312823Y-15197725D02*
X12436632Y-15197725D01*
X12369965Y-15273915D01*
X12398537Y-15273915D01*
X12417585Y-15283439D01*
X12427108Y-15292963D01*
X12436632Y-15312011D01*
X12436632Y-15359630D01*
X12427108Y-15378677D01*
X12417585Y-15388201D01*
X12398537Y-15397725D01*
X12341394Y-15397725D01*
X12322346Y-15388201D01*
X12312823Y-15378677D01*
X12617585Y-15197725D02*
X12522346Y-15197725D01*
X12512823Y-15292963D01*
X12522346Y-15283439D01*
X12541394Y-15273915D01*
X12589013Y-15273915D01*
X12608061Y-15283439D01*
X12617585Y-15292963D01*
X12627108Y-15312011D01*
X12627108Y-15359630D01*
X12617585Y-15378677D01*
X12608061Y-15388201D01*
X12589013Y-15397725D01*
X12541394Y-15397725D01*
X12522346Y-15388201D01*
X12512823Y-15378677D01*
X12798537Y-15264392D02*
X12798537Y-15397725D01*
X12750918Y-15188201D02*
X12703299Y-15331058D01*
X12827108Y-15331058D01*
X12893775Y-15197725D02*
X12893775Y-15235820D01*
X12969965Y-15197725D02*
X12969965Y-15235820D01*
X13265204Y-15473915D02*
X13255680Y-15464392D01*
X13236632Y-15435820D01*
X13227108Y-15416773D01*
X13217585Y-15388201D01*
X13208061Y-15340582D01*
X13208061Y-15302487D01*
X13217585Y-15254868D01*
X13227108Y-15226296D01*
X13236632Y-15207249D01*
X13255680Y-15178677D01*
X13265204Y-15169154D01*
X13331870Y-15216773D02*
X13341394Y-15207249D01*
X13360442Y-15197725D01*
X13408061Y-15197725D01*
X13427108Y-15207249D01*
X13436632Y-15216773D01*
X13446156Y-15235820D01*
X13446156Y-15254868D01*
X13436632Y-15283439D01*
X13322346Y-15397725D01*
X13446156Y-15397725D01*
X13684251Y-15397725D02*
X13684251Y-15197725D01*
X13769965Y-15397725D02*
X13769965Y-15292963D01*
X13760442Y-15273915D01*
X13741394Y-15264392D01*
X13712823Y-15264392D01*
X13693775Y-15273915D01*
X13684251Y-15283439D01*
X13893775Y-15397725D02*
X13874727Y-15388201D01*
X13865204Y-15378677D01*
X13855680Y-15359630D01*
X13855680Y-15302487D01*
X13865204Y-15283439D01*
X13874727Y-15273915D01*
X13893775Y-15264392D01*
X13922346Y-15264392D01*
X13941394Y-15273915D01*
X13950918Y-15283439D01*
X13960442Y-15302487D01*
X13960442Y-15359630D01*
X13950918Y-15378677D01*
X13941394Y-15388201D01*
X13922346Y-15397725D01*
X13893775Y-15397725D01*
X14074727Y-15397725D02*
X14055680Y-15388201D01*
X14046156Y-15369154D01*
X14046156Y-15197725D01*
X14227108Y-15388201D02*
X14208061Y-15397725D01*
X14169965Y-15397725D01*
X14150918Y-15388201D01*
X14141394Y-15369154D01*
X14141394Y-15292963D01*
X14150918Y-15273915D01*
X14169965Y-15264392D01*
X14208061Y-15264392D01*
X14227108Y-15273915D01*
X14236632Y-15292963D01*
X14236632Y-15312011D01*
X14141394Y-15331058D01*
X14312823Y-15388201D02*
X14331870Y-15397725D01*
X14369965Y-15397725D01*
X14389013Y-15388201D01*
X14398537Y-15369154D01*
X14398537Y-15359630D01*
X14389013Y-15340582D01*
X14369965Y-15331058D01*
X14341394Y-15331058D01*
X14322346Y-15321535D01*
X14312823Y-15302487D01*
X14312823Y-15292963D01*
X14322346Y-15273915D01*
X14341394Y-15264392D01*
X14369965Y-15264392D01*
X14389013Y-15273915D01*
X14465204Y-15473915D02*
X14474727Y-15464392D01*
X14493775Y-15435820D01*
X14503299Y-15416773D01*
X14512823Y-15388201D01*
X14522346Y-15340582D01*
X14522346Y-15302487D01*
X14512823Y-15254868D01*
X14503299Y-15226296D01*
X14493775Y-15207249D01*
X14474727Y-15178677D01*
X14465204Y-15169154D01*
D16*
X9643299Y-15621249D02*
X9693299Y-15571249D01*
X9643299Y-15521249D01*
X9593299Y-15571249D01*
X9643299Y-15621249D01*
D11*
X10055680Y-15661725D02*
X9941394Y-15661725D01*
X9998537Y-15661725D02*
X9998537Y-15461725D01*
X9979489Y-15490296D01*
X9960442Y-15509344D01*
X9941394Y-15518868D01*
X10141394Y-15642677D02*
X10150918Y-15652201D01*
X10141394Y-15661725D01*
X10131870Y-15652201D01*
X10141394Y-15642677D01*
X10141394Y-15661725D01*
X10274727Y-15461725D02*
X10293775Y-15461725D01*
X10312823Y-15471249D01*
X10322347Y-15480773D01*
X10331870Y-15499820D01*
X10341394Y-15537915D01*
X10341394Y-15585535D01*
X10331870Y-15623630D01*
X10322347Y-15642677D01*
X10312823Y-15652201D01*
X10293775Y-15661725D01*
X10274727Y-15661725D01*
X10255680Y-15652201D01*
X10246156Y-15642677D01*
X10236632Y-15623630D01*
X10227108Y-15585535D01*
X10227108Y-15537915D01*
X10236632Y-15499820D01*
X10246156Y-15480773D01*
X10255680Y-15471249D01*
X10274727Y-15461725D01*
X10465204Y-15461725D02*
X10484251Y-15461725D01*
X10503299Y-15471249D01*
X10512823Y-15480773D01*
X10522347Y-15499820D01*
X10531870Y-15537915D01*
X10531870Y-15585535D01*
X10522347Y-15623630D01*
X10512823Y-15642677D01*
X10503299Y-15652201D01*
X10484251Y-15661725D01*
X10465204Y-15661725D01*
X10446156Y-15652201D01*
X10436632Y-15642677D01*
X10427108Y-15623630D01*
X10417585Y-15585535D01*
X10417585Y-15537915D01*
X10427108Y-15499820D01*
X10436632Y-15480773D01*
X10446156Y-15471249D01*
X10465204Y-15461725D01*
X10655680Y-15461725D02*
X10674727Y-15461725D01*
X10693775Y-15471249D01*
X10703299Y-15480773D01*
X10712823Y-15499820D01*
X10722347Y-15537915D01*
X10722347Y-15585535D01*
X10712823Y-15623630D01*
X10703299Y-15642677D01*
X10693775Y-15652201D01*
X10674727Y-15661725D01*
X10655680Y-15661725D01*
X10636632Y-15652201D01*
X10627108Y-15642677D01*
X10617585Y-15623630D01*
X10608061Y-15585535D01*
X10608061Y-15537915D01*
X10617585Y-15499820D01*
X10627108Y-15480773D01*
X10636632Y-15471249D01*
X10655680Y-15461725D01*
X10808061Y-15661725D02*
X10808061Y-15528392D01*
X10808061Y-15547439D02*
X10817585Y-15537915D01*
X10836632Y-15528392D01*
X10865204Y-15528392D01*
X10884251Y-15537915D01*
X10893775Y-15556963D01*
X10893775Y-15661725D01*
X10893775Y-15556963D02*
X10903299Y-15537915D01*
X10922347Y-15528392D01*
X10950918Y-15528392D01*
X10969966Y-15537915D01*
X10979489Y-15556963D01*
X10979489Y-15661725D01*
X11074727Y-15661725D02*
X11074727Y-15528392D01*
X11074727Y-15547439D02*
X11084251Y-15537915D01*
X11103299Y-15528392D01*
X11131870Y-15528392D01*
X11150918Y-15537915D01*
X11160442Y-15556963D01*
X11160442Y-15661725D01*
X11160442Y-15556963D02*
X11169966Y-15537915D01*
X11189013Y-15528392D01*
X11217585Y-15528392D01*
X11236632Y-15537915D01*
X11246156Y-15556963D01*
X11246156Y-15661725D01*
X11636632Y-15452201D02*
X11465204Y-15709344D01*
X11893775Y-15461725D02*
X11912823Y-15461725D01*
X11931870Y-15471249D01*
X11941394Y-15480773D01*
X11950918Y-15499820D01*
X11960442Y-15537915D01*
X11960442Y-15585535D01*
X11950918Y-15623630D01*
X11941394Y-15642677D01*
X11931870Y-15652201D01*
X11912823Y-15661725D01*
X11893775Y-15661725D01*
X11874727Y-15652201D01*
X11865204Y-15642677D01*
X11855680Y-15623630D01*
X11846156Y-15585535D01*
X11846156Y-15537915D01*
X11855680Y-15499820D01*
X11865204Y-15480773D01*
X11874727Y-15471249D01*
X11893775Y-15461725D01*
X12046156Y-15642677D02*
X12055680Y-15652201D01*
X12046156Y-15661725D01*
X12036632Y-15652201D01*
X12046156Y-15642677D01*
X12046156Y-15661725D01*
X12179489Y-15461725D02*
X12198537Y-15461725D01*
X12217585Y-15471249D01*
X12227108Y-15480773D01*
X12236632Y-15499820D01*
X12246156Y-15537915D01*
X12246156Y-15585535D01*
X12236632Y-15623630D01*
X12227108Y-15642677D01*
X12217585Y-15652201D01*
X12198537Y-15661725D01*
X12179489Y-15661725D01*
X12160442Y-15652201D01*
X12150918Y-15642677D01*
X12141394Y-15623630D01*
X12131870Y-15585535D01*
X12131870Y-15537915D01*
X12141394Y-15499820D01*
X12150918Y-15480773D01*
X12160442Y-15471249D01*
X12179489Y-15461725D01*
X12312823Y-15461725D02*
X12436632Y-15461725D01*
X12369965Y-15537915D01*
X12398537Y-15537915D01*
X12417585Y-15547439D01*
X12427108Y-15556963D01*
X12436632Y-15576011D01*
X12436632Y-15623630D01*
X12427108Y-15642677D01*
X12417585Y-15652201D01*
X12398537Y-15661725D01*
X12341394Y-15661725D01*
X12322346Y-15652201D01*
X12312823Y-15642677D01*
X12531870Y-15661725D02*
X12569965Y-15661725D01*
X12589013Y-15652201D01*
X12598537Y-15642677D01*
X12617585Y-15614106D01*
X12627108Y-15576011D01*
X12627108Y-15499820D01*
X12617585Y-15480773D01*
X12608061Y-15471249D01*
X12589013Y-15461725D01*
X12550918Y-15461725D01*
X12531870Y-15471249D01*
X12522346Y-15480773D01*
X12512823Y-15499820D01*
X12512823Y-15547439D01*
X12522346Y-15566487D01*
X12531870Y-15576011D01*
X12550918Y-15585535D01*
X12589013Y-15585535D01*
X12608061Y-15576011D01*
X12617585Y-15566487D01*
X12627108Y-15547439D01*
X12798537Y-15528392D02*
X12798537Y-15661725D01*
X12750918Y-15452201D02*
X12703299Y-15595058D01*
X12827108Y-15595058D01*
X12893775Y-15461725D02*
X12893775Y-15499820D01*
X12969965Y-15461725D02*
X12969965Y-15499820D01*
X13265204Y-15737915D02*
X13255680Y-15728392D01*
X13236632Y-15699820D01*
X13227108Y-15680773D01*
X13217585Y-15652201D01*
X13208061Y-15604582D01*
X13208061Y-15566487D01*
X13217585Y-15518868D01*
X13227108Y-15490296D01*
X13236632Y-15471249D01*
X13255680Y-15442677D01*
X13265204Y-15433154D01*
X13436632Y-15461725D02*
X13341394Y-15461725D01*
X13331870Y-15556963D01*
X13341394Y-15547439D01*
X13360442Y-15537915D01*
X13408061Y-15537915D01*
X13427108Y-15547439D01*
X13436632Y-15556963D01*
X13446156Y-15576011D01*
X13446156Y-15623630D01*
X13436632Y-15642677D01*
X13427108Y-15652201D01*
X13408061Y-15661725D01*
X13360442Y-15661725D01*
X13341394Y-15652201D01*
X13331870Y-15642677D01*
X13617585Y-15528392D02*
X13617585Y-15661725D01*
X13569965Y-15452201D02*
X13522346Y-15595058D01*
X13646156Y-15595058D01*
X13874727Y-15661725D02*
X13874727Y-15461725D01*
X13960442Y-15661725D02*
X13960442Y-15556963D01*
X13950918Y-15537915D01*
X13931870Y-15528392D01*
X13903299Y-15528392D01*
X13884251Y-15537915D01*
X13874727Y-15547439D01*
X14084251Y-15661725D02*
X14065204Y-15652201D01*
X14055680Y-15642677D01*
X14046156Y-15623630D01*
X14046156Y-15566487D01*
X14055680Y-15547439D01*
X14065204Y-15537915D01*
X14084251Y-15528392D01*
X14112823Y-15528392D01*
X14131870Y-15537915D01*
X14141394Y-15547439D01*
X14150918Y-15566487D01*
X14150918Y-15623630D01*
X14141394Y-15642677D01*
X14131870Y-15652201D01*
X14112823Y-15661725D01*
X14084251Y-15661725D01*
X14265204Y-15661725D02*
X14246156Y-15652201D01*
X14236632Y-15633154D01*
X14236632Y-15461725D01*
X14417585Y-15652201D02*
X14398537Y-15661725D01*
X14360442Y-15661725D01*
X14341394Y-15652201D01*
X14331870Y-15633154D01*
X14331870Y-15556963D01*
X14341394Y-15537915D01*
X14360442Y-15528392D01*
X14398537Y-15528392D01*
X14417585Y-15537915D01*
X14427108Y-15556963D01*
X14427108Y-15576011D01*
X14331870Y-15595058D01*
X14503299Y-15652201D02*
X14522346Y-15661725D01*
X14560442Y-15661725D01*
X14579489Y-15652201D01*
X14589013Y-15633154D01*
X14589013Y-15623630D01*
X14579489Y-15604582D01*
X14560442Y-15595058D01*
X14531870Y-15595058D01*
X14512823Y-15585535D01*
X14503299Y-15566487D01*
X14503299Y-15556963D01*
X14512823Y-15537915D01*
X14531870Y-15528392D01*
X14560442Y-15528392D01*
X14579489Y-15537915D01*
X14655680Y-15737915D02*
X14665204Y-15728392D01*
X14684251Y-15699820D01*
X14693775Y-15680773D01*
X14703299Y-15652201D01*
X14712823Y-15604582D01*
X14712823Y-15566487D01*
X14703299Y-15518868D01*
X14693775Y-15490296D01*
X14684251Y-15471249D01*
X14665204Y-15442677D01*
X14655680Y-15433154D01*
D17*
X9561299Y-15769249D02*
X9693299Y-15901249D01*
X9693299Y-15769249D02*
X9561299Y-15901249D01*
X9693299Y-15835249D02*
G75*
G03*
X9693299Y-15835249I-66000J0D01*
G01*
D11*
X10055680Y-15925725D02*
X9941394Y-15925725D01*
X9998537Y-15925725D02*
X9998537Y-15725725D01*
X9979489Y-15754296D01*
X9960442Y-15773344D01*
X9941394Y-15782868D01*
X10141394Y-15906677D02*
X10150918Y-15916201D01*
X10141394Y-15925725D01*
X10131870Y-15916201D01*
X10141394Y-15906677D01*
X10141394Y-15925725D01*
X10217585Y-15725725D02*
X10341394Y-15725725D01*
X10274727Y-15801915D01*
X10303299Y-15801915D01*
X10322347Y-15811439D01*
X10331870Y-15820963D01*
X10341394Y-15840011D01*
X10341394Y-15887630D01*
X10331870Y-15906677D01*
X10322347Y-15916201D01*
X10303299Y-15925725D01*
X10246156Y-15925725D01*
X10227108Y-15916201D01*
X10217585Y-15906677D01*
X10417585Y-15744773D02*
X10427108Y-15735249D01*
X10446156Y-15725725D01*
X10493775Y-15725725D01*
X10512823Y-15735249D01*
X10522347Y-15744773D01*
X10531870Y-15763820D01*
X10531870Y-15782868D01*
X10522347Y-15811439D01*
X10408061Y-15925725D01*
X10531870Y-15925725D01*
X10655680Y-15725725D02*
X10674727Y-15725725D01*
X10693775Y-15735249D01*
X10703299Y-15744773D01*
X10712823Y-15763820D01*
X10722347Y-15801915D01*
X10722347Y-15849535D01*
X10712823Y-15887630D01*
X10703299Y-15906677D01*
X10693775Y-15916201D01*
X10674727Y-15925725D01*
X10655680Y-15925725D01*
X10636632Y-15916201D01*
X10627108Y-15906677D01*
X10617585Y-15887630D01*
X10608061Y-15849535D01*
X10608061Y-15801915D01*
X10617585Y-15763820D01*
X10627108Y-15744773D01*
X10636632Y-15735249D01*
X10655680Y-15725725D01*
X10808061Y-15925725D02*
X10808061Y-15792392D01*
X10808061Y-15811439D02*
X10817585Y-15801915D01*
X10836632Y-15792392D01*
X10865204Y-15792392D01*
X10884251Y-15801915D01*
X10893775Y-15820963D01*
X10893775Y-15925725D01*
X10893775Y-15820963D02*
X10903299Y-15801915D01*
X10922347Y-15792392D01*
X10950918Y-15792392D01*
X10969966Y-15801915D01*
X10979489Y-15820963D01*
X10979489Y-15925725D01*
X11074727Y-15925725D02*
X11074727Y-15792392D01*
X11074727Y-15811439D02*
X11084251Y-15801915D01*
X11103299Y-15792392D01*
X11131870Y-15792392D01*
X11150918Y-15801915D01*
X11160442Y-15820963D01*
X11160442Y-15925725D01*
X11160442Y-15820963D02*
X11169966Y-15801915D01*
X11189013Y-15792392D01*
X11217585Y-15792392D01*
X11236632Y-15801915D01*
X11246156Y-15820963D01*
X11246156Y-15925725D01*
X11636632Y-15716201D02*
X11465204Y-15973344D01*
X11893775Y-15725725D02*
X11912823Y-15725725D01*
X11931870Y-15735249D01*
X11941394Y-15744773D01*
X11950918Y-15763820D01*
X11960442Y-15801915D01*
X11960442Y-15849535D01*
X11950918Y-15887630D01*
X11941394Y-15906677D01*
X11931870Y-15916201D01*
X11912823Y-15925725D01*
X11893775Y-15925725D01*
X11874727Y-15916201D01*
X11865204Y-15906677D01*
X11855680Y-15887630D01*
X11846156Y-15849535D01*
X11846156Y-15801915D01*
X11855680Y-15763820D01*
X11865204Y-15744773D01*
X11874727Y-15735249D01*
X11893775Y-15725725D01*
X12046156Y-15906677D02*
X12055680Y-15916201D01*
X12046156Y-15925725D01*
X12036632Y-15916201D01*
X12046156Y-15906677D01*
X12046156Y-15925725D01*
X12179489Y-15725725D02*
X12198537Y-15725725D01*
X12217585Y-15735249D01*
X12227108Y-15744773D01*
X12236632Y-15763820D01*
X12246156Y-15801915D01*
X12246156Y-15849535D01*
X12236632Y-15887630D01*
X12227108Y-15906677D01*
X12217585Y-15916201D01*
X12198537Y-15925725D01*
X12179489Y-15925725D01*
X12160442Y-15916201D01*
X12150918Y-15906677D01*
X12141394Y-15887630D01*
X12131870Y-15849535D01*
X12131870Y-15801915D01*
X12141394Y-15763820D01*
X12150918Y-15744773D01*
X12160442Y-15735249D01*
X12179489Y-15725725D01*
X12427108Y-15725725D02*
X12331870Y-15725725D01*
X12322346Y-15820963D01*
X12331870Y-15811439D01*
X12350918Y-15801915D01*
X12398537Y-15801915D01*
X12417585Y-15811439D01*
X12427108Y-15820963D01*
X12436632Y-15840011D01*
X12436632Y-15887630D01*
X12427108Y-15906677D01*
X12417585Y-15916201D01*
X12398537Y-15925725D01*
X12350918Y-15925725D01*
X12331870Y-15916201D01*
X12322346Y-15906677D01*
X12512823Y-15744773D02*
X12522346Y-15735249D01*
X12541394Y-15725725D01*
X12589013Y-15725725D01*
X12608061Y-15735249D01*
X12617585Y-15744773D01*
X12627108Y-15763820D01*
X12627108Y-15782868D01*
X12617585Y-15811439D01*
X12503299Y-15925725D01*
X12627108Y-15925725D01*
X12750918Y-15725725D02*
X12769965Y-15725725D01*
X12789013Y-15735249D01*
X12798537Y-15744773D01*
X12808061Y-15763820D01*
X12817585Y-15801915D01*
X12817585Y-15849535D01*
X12808061Y-15887630D01*
X12798537Y-15906677D01*
X12789013Y-15916201D01*
X12769965Y-15925725D01*
X12750918Y-15925725D01*
X12731870Y-15916201D01*
X12722346Y-15906677D01*
X12712823Y-15887630D01*
X12703299Y-15849535D01*
X12703299Y-15801915D01*
X12712823Y-15763820D01*
X12722346Y-15744773D01*
X12731870Y-15735249D01*
X12750918Y-15725725D01*
X12893775Y-15725725D02*
X12893775Y-15763820D01*
X12969965Y-15725725D02*
X12969965Y-15763820D01*
X13265204Y-16001915D02*
X13255680Y-15992392D01*
X13236632Y-15963820D01*
X13227108Y-15944773D01*
X13217585Y-15916201D01*
X13208061Y-15868582D01*
X13208061Y-15830487D01*
X13217585Y-15782868D01*
X13227108Y-15754296D01*
X13236632Y-15735249D01*
X13255680Y-15706677D01*
X13265204Y-15697154D01*
X13331870Y-15744773D02*
X13341394Y-15735249D01*
X13360442Y-15725725D01*
X13408061Y-15725725D01*
X13427108Y-15735249D01*
X13436632Y-15744773D01*
X13446156Y-15763820D01*
X13446156Y-15782868D01*
X13436632Y-15811439D01*
X13322346Y-15925725D01*
X13446156Y-15925725D01*
X13684251Y-15925725D02*
X13684251Y-15725725D01*
X13769965Y-15925725D02*
X13769965Y-15820963D01*
X13760442Y-15801915D01*
X13741394Y-15792392D01*
X13712823Y-15792392D01*
X13693775Y-15801915D01*
X13684251Y-15811439D01*
X13893775Y-15925725D02*
X13874727Y-15916201D01*
X13865204Y-15906677D01*
X13855680Y-15887630D01*
X13855680Y-15830487D01*
X13865204Y-15811439D01*
X13874727Y-15801915D01*
X13893775Y-15792392D01*
X13922346Y-15792392D01*
X13941394Y-15801915D01*
X13950918Y-15811439D01*
X13960442Y-15830487D01*
X13960442Y-15887630D01*
X13950918Y-15906677D01*
X13941394Y-15916201D01*
X13922346Y-15925725D01*
X13893775Y-15925725D01*
X14074727Y-15925725D02*
X14055680Y-15916201D01*
X14046156Y-15897154D01*
X14046156Y-15725725D01*
X14227108Y-15916201D02*
X14208061Y-15925725D01*
X14169965Y-15925725D01*
X14150918Y-15916201D01*
X14141394Y-15897154D01*
X14141394Y-15820963D01*
X14150918Y-15801915D01*
X14169965Y-15792392D01*
X14208061Y-15792392D01*
X14227108Y-15801915D01*
X14236632Y-15820963D01*
X14236632Y-15840011D01*
X14141394Y-15859058D01*
X14312823Y-15916201D02*
X14331870Y-15925725D01*
X14369965Y-15925725D01*
X14389013Y-15916201D01*
X14398537Y-15897154D01*
X14398537Y-15887630D01*
X14389013Y-15868582D01*
X14369965Y-15859058D01*
X14341394Y-15859058D01*
X14322346Y-15849535D01*
X14312823Y-15830487D01*
X14312823Y-15820963D01*
X14322346Y-15801915D01*
X14341394Y-15792392D01*
X14369965Y-15792392D01*
X14389013Y-15801915D01*
X14465204Y-16001915D02*
X14474727Y-15992392D01*
X14493775Y-15963820D01*
X14503299Y-15944773D01*
X14512823Y-15916201D01*
X14522346Y-15868582D01*
X14522346Y-15830487D01*
X14512823Y-15782868D01*
X14503299Y-15754296D01*
X14493775Y-15735249D01*
X14474727Y-15706677D01*
X14465204Y-15697154D01*
D18*
X9541299Y-16023249D02*
X9693299Y-16175249D01*
X9693299Y-16023249D02*
X9541299Y-16175249D01*
X9617299Y-16023249D02*
X9617299Y-16175249D01*
X9541299Y-16099249D02*
X9693299Y-16099249D01*
D11*
X10055680Y-16189725D02*
X9941394Y-16189725D01*
X9998537Y-16189725D02*
X9998537Y-15989725D01*
X9979489Y-16018296D01*
X9960442Y-16037344D01*
X9941394Y-16046868D01*
X10141394Y-16170677D02*
X10150918Y-16180201D01*
X10141394Y-16189725D01*
X10131870Y-16180201D01*
X10141394Y-16170677D01*
X10141394Y-16189725D01*
X10331870Y-15989725D02*
X10236632Y-15989725D01*
X10227108Y-16084963D01*
X10236632Y-16075439D01*
X10255680Y-16065915D01*
X10303299Y-16065915D01*
X10322347Y-16075439D01*
X10331870Y-16084963D01*
X10341394Y-16104011D01*
X10341394Y-16151630D01*
X10331870Y-16170677D01*
X10322347Y-16180201D01*
X10303299Y-16189725D01*
X10255680Y-16189725D01*
X10236632Y-16180201D01*
X10227108Y-16170677D01*
X10417585Y-16008773D02*
X10427108Y-15999249D01*
X10446156Y-15989725D01*
X10493775Y-15989725D01*
X10512823Y-15999249D01*
X10522347Y-16008773D01*
X10531870Y-16027820D01*
X10531870Y-16046868D01*
X10522347Y-16075439D01*
X10408061Y-16189725D01*
X10531870Y-16189725D01*
X10655680Y-15989725D02*
X10674727Y-15989725D01*
X10693775Y-15999249D01*
X10703299Y-16008773D01*
X10712823Y-16027820D01*
X10722347Y-16065915D01*
X10722347Y-16113535D01*
X10712823Y-16151630D01*
X10703299Y-16170677D01*
X10693775Y-16180201D01*
X10674727Y-16189725D01*
X10655680Y-16189725D01*
X10636632Y-16180201D01*
X10627108Y-16170677D01*
X10617585Y-16151630D01*
X10608061Y-16113535D01*
X10608061Y-16065915D01*
X10617585Y-16027820D01*
X10627108Y-16008773D01*
X10636632Y-15999249D01*
X10655680Y-15989725D01*
X10808061Y-16189725D02*
X10808061Y-16056392D01*
X10808061Y-16075439D02*
X10817585Y-16065915D01*
X10836632Y-16056392D01*
X10865204Y-16056392D01*
X10884251Y-16065915D01*
X10893775Y-16084963D01*
X10893775Y-16189725D01*
X10893775Y-16084963D02*
X10903299Y-16065915D01*
X10922347Y-16056392D01*
X10950918Y-16056392D01*
X10969966Y-16065915D01*
X10979489Y-16084963D01*
X10979489Y-16189725D01*
X11074727Y-16189725D02*
X11074727Y-16056392D01*
X11074727Y-16075439D02*
X11084251Y-16065915D01*
X11103299Y-16056392D01*
X11131870Y-16056392D01*
X11150918Y-16065915D01*
X11160442Y-16084963D01*
X11160442Y-16189725D01*
X11160442Y-16084963D02*
X11169966Y-16065915D01*
X11189013Y-16056392D01*
X11217585Y-16056392D01*
X11236632Y-16065915D01*
X11246156Y-16084963D01*
X11246156Y-16189725D01*
X11636632Y-15980201D02*
X11465204Y-16237344D01*
X11893775Y-15989725D02*
X11912823Y-15989725D01*
X11931870Y-15999249D01*
X11941394Y-16008773D01*
X11950918Y-16027820D01*
X11960442Y-16065915D01*
X11960442Y-16113535D01*
X11950918Y-16151630D01*
X11941394Y-16170677D01*
X11931870Y-16180201D01*
X11912823Y-16189725D01*
X11893775Y-16189725D01*
X11874727Y-16180201D01*
X11865204Y-16170677D01*
X11855680Y-16151630D01*
X11846156Y-16113535D01*
X11846156Y-16065915D01*
X11855680Y-16027820D01*
X11865204Y-16008773D01*
X11874727Y-15999249D01*
X11893775Y-15989725D01*
X12046156Y-16170677D02*
X12055680Y-16180201D01*
X12046156Y-16189725D01*
X12036632Y-16180201D01*
X12046156Y-16170677D01*
X12046156Y-16189725D01*
X12179489Y-15989725D02*
X12198537Y-15989725D01*
X12217585Y-15999249D01*
X12227108Y-16008773D01*
X12236632Y-16027820D01*
X12246156Y-16065915D01*
X12246156Y-16113535D01*
X12236632Y-16151630D01*
X12227108Y-16170677D01*
X12217585Y-16180201D01*
X12198537Y-16189725D01*
X12179489Y-16189725D01*
X12160442Y-16180201D01*
X12150918Y-16170677D01*
X12141394Y-16151630D01*
X12131870Y-16113535D01*
X12131870Y-16065915D01*
X12141394Y-16027820D01*
X12150918Y-16008773D01*
X12160442Y-15999249D01*
X12179489Y-15989725D01*
X12427108Y-15989725D02*
X12331870Y-15989725D01*
X12322346Y-16084963D01*
X12331870Y-16075439D01*
X12350918Y-16065915D01*
X12398537Y-16065915D01*
X12417585Y-16075439D01*
X12427108Y-16084963D01*
X12436632Y-16104011D01*
X12436632Y-16151630D01*
X12427108Y-16170677D01*
X12417585Y-16180201D01*
X12398537Y-16189725D01*
X12350918Y-16189725D01*
X12331870Y-16180201D01*
X12322346Y-16170677D01*
X12531870Y-16189725D02*
X12569965Y-16189725D01*
X12589013Y-16180201D01*
X12598537Y-16170677D01*
X12617585Y-16142106D01*
X12627108Y-16104011D01*
X12627108Y-16027820D01*
X12617585Y-16008773D01*
X12608061Y-15999249D01*
X12589013Y-15989725D01*
X12550918Y-15989725D01*
X12531870Y-15999249D01*
X12522346Y-16008773D01*
X12512823Y-16027820D01*
X12512823Y-16075439D01*
X12522346Y-16094487D01*
X12531870Y-16104011D01*
X12550918Y-16113535D01*
X12589013Y-16113535D01*
X12608061Y-16104011D01*
X12617585Y-16094487D01*
X12627108Y-16075439D01*
X12741394Y-16075439D02*
X12722346Y-16065915D01*
X12712823Y-16056392D01*
X12703299Y-16037344D01*
X12703299Y-16027820D01*
X12712823Y-16008773D01*
X12722346Y-15999249D01*
X12741394Y-15989725D01*
X12779489Y-15989725D01*
X12798537Y-15999249D01*
X12808061Y-16008773D01*
X12817585Y-16027820D01*
X12817585Y-16037344D01*
X12808061Y-16056392D01*
X12798537Y-16065915D01*
X12779489Y-16075439D01*
X12741394Y-16075439D01*
X12722346Y-16084963D01*
X12712823Y-16094487D01*
X12703299Y-16113535D01*
X12703299Y-16151630D01*
X12712823Y-16170677D01*
X12722346Y-16180201D01*
X12741394Y-16189725D01*
X12779489Y-16189725D01*
X12798537Y-16180201D01*
X12808061Y-16170677D01*
X12817585Y-16151630D01*
X12817585Y-16113535D01*
X12808061Y-16094487D01*
X12798537Y-16084963D01*
X12779489Y-16075439D01*
X12893775Y-15989725D02*
X12893775Y-16027820D01*
X12969965Y-15989725D02*
X12969965Y-16027820D01*
X13265204Y-16265915D02*
X13255680Y-16256392D01*
X13236632Y-16227820D01*
X13227108Y-16208773D01*
X13217585Y-16180201D01*
X13208061Y-16132582D01*
X13208061Y-16094487D01*
X13217585Y-16046868D01*
X13227108Y-16018296D01*
X13236632Y-15999249D01*
X13255680Y-15970677D01*
X13265204Y-15961154D01*
X13331870Y-16008773D02*
X13341394Y-15999249D01*
X13360442Y-15989725D01*
X13408061Y-15989725D01*
X13427108Y-15999249D01*
X13436632Y-16008773D01*
X13446156Y-16027820D01*
X13446156Y-16046868D01*
X13436632Y-16075439D01*
X13322346Y-16189725D01*
X13446156Y-16189725D01*
X13560442Y-16075439D02*
X13541394Y-16065915D01*
X13531870Y-16056392D01*
X13522346Y-16037344D01*
X13522346Y-16027820D01*
X13531870Y-16008773D01*
X13541394Y-15999249D01*
X13560442Y-15989725D01*
X13598537Y-15989725D01*
X13617585Y-15999249D01*
X13627108Y-16008773D01*
X13636632Y-16027820D01*
X13636632Y-16037344D01*
X13627108Y-16056392D01*
X13617585Y-16065915D01*
X13598537Y-16075439D01*
X13560442Y-16075439D01*
X13541394Y-16084963D01*
X13531870Y-16094487D01*
X13522346Y-16113535D01*
X13522346Y-16151630D01*
X13531870Y-16170677D01*
X13541394Y-16180201D01*
X13560442Y-16189725D01*
X13598537Y-16189725D01*
X13617585Y-16180201D01*
X13627108Y-16170677D01*
X13636632Y-16151630D01*
X13636632Y-16113535D01*
X13627108Y-16094487D01*
X13617585Y-16084963D01*
X13598537Y-16075439D01*
X13874727Y-16189725D02*
X13874727Y-15989725D01*
X13960442Y-16189725D02*
X13960442Y-16084963D01*
X13950918Y-16065915D01*
X13931870Y-16056392D01*
X13903299Y-16056392D01*
X13884251Y-16065915D01*
X13874727Y-16075439D01*
X14084251Y-16189725D02*
X14065204Y-16180201D01*
X14055680Y-16170677D01*
X14046156Y-16151630D01*
X14046156Y-16094487D01*
X14055680Y-16075439D01*
X14065204Y-16065915D01*
X14084251Y-16056392D01*
X14112823Y-16056392D01*
X14131870Y-16065915D01*
X14141394Y-16075439D01*
X14150918Y-16094487D01*
X14150918Y-16151630D01*
X14141394Y-16170677D01*
X14131870Y-16180201D01*
X14112823Y-16189725D01*
X14084251Y-16189725D01*
X14265204Y-16189725D02*
X14246156Y-16180201D01*
X14236632Y-16161154D01*
X14236632Y-15989725D01*
X14417585Y-16180201D02*
X14398537Y-16189725D01*
X14360442Y-16189725D01*
X14341394Y-16180201D01*
X14331870Y-16161154D01*
X14331870Y-16084963D01*
X14341394Y-16065915D01*
X14360442Y-16056392D01*
X14398537Y-16056392D01*
X14417585Y-16065915D01*
X14427108Y-16084963D01*
X14427108Y-16104011D01*
X14331870Y-16123058D01*
X14503299Y-16180201D02*
X14522346Y-16189725D01*
X14560442Y-16189725D01*
X14579489Y-16180201D01*
X14589013Y-16161154D01*
X14589013Y-16151630D01*
X14579489Y-16132582D01*
X14560442Y-16123058D01*
X14531870Y-16123058D01*
X14512823Y-16113535D01*
X14503299Y-16094487D01*
X14503299Y-16084963D01*
X14512823Y-16065915D01*
X14531870Y-16056392D01*
X14560442Y-16056392D01*
X14579489Y-16065915D01*
X14655680Y-16265915D02*
X14665204Y-16256392D01*
X14684251Y-16227820D01*
X14693775Y-16208773D01*
X14703299Y-16180201D01*
X14712823Y-16132582D01*
X14712823Y-16094487D01*
X14703299Y-16046868D01*
X14693775Y-16018296D01*
X14684251Y-15999249D01*
X14665204Y-15970677D01*
X14655680Y-15961154D01*
M02*
