%TF.GenerationSoftware,KiCad,Pcbnew,6.0.5*%
%TF.CreationDate,2022-06-15T21:06:15+00:00*%
%TF.ProjectId,MicroBot - connector board,4d696372-6f42-46f7-9420-2d20636f6e6e,rev?*%
%TF.SameCoordinates,Original*%
%TF.FileFunction,Soldermask,Bot*%
%TF.FilePolarity,Negative*%
%FSLAX46Y46*%
G04 Gerber Fmt 4.6, Leading zero omitted, Abs format (unit mm)*
G04 Created by KiCad (PCBNEW 6.0.5) date 2022-06-15 21:06:15*
%MOMM*%
%LPD*%
G01*
G04 APERTURE LIST*
%ADD10C,1.600000*%
%ADD11R,3.000000X3.000000*%
%ADD12C,3.000000*%
%ADD13R,1.700000X1.700000*%
%ADD14O,1.700000X1.700000*%
%ADD15R,3.960000X1.980000*%
%ADD16O,3.960000X1.980000*%
%ADD17C,2.500000*%
%ADD18R,1.800000X1.800000*%
%ADD19C,1.800000*%
%ADD20O,1.600000X1.600000*%
%ADD21R,1.200000X1.200000*%
%ADD22C,1.200000*%
%ADD23R,2.300000X1.500000*%
%ADD24O,2.300000X1.500000*%
%ADD25R,1.600000X1.600000*%
G04 APERTURE END LIST*
D10*
X138448489Y-119628989D03*
X138448489Y-122128989D03*
D11*
X133344489Y-127577989D03*
D12*
X138424489Y-127577989D03*
D13*
X120990989Y-70485000D03*
D14*
X120990989Y-67945000D03*
X123530989Y-70485000D03*
X123530989Y-67945000D03*
X126070989Y-70485000D03*
X126070989Y-67945000D03*
X128610989Y-70485000D03*
X128610989Y-67945000D03*
X131150989Y-70485000D03*
X131150989Y-67945000D03*
X133690989Y-70485000D03*
X133690989Y-67945000D03*
X136230989Y-70485000D03*
X136230989Y-67945000D03*
X138770989Y-70485000D03*
X138770989Y-67945000D03*
X141310989Y-70485000D03*
X141310989Y-67945000D03*
X143850989Y-70485000D03*
X143850989Y-67945000D03*
X146390989Y-70485000D03*
X146390989Y-67945000D03*
X148930989Y-70485000D03*
X148930989Y-67945000D03*
X151470989Y-70485000D03*
X151470989Y-67945000D03*
X154010989Y-70485000D03*
X154010989Y-67945000D03*
X156550989Y-70485000D03*
X156550989Y-67945000D03*
X159090989Y-70485000D03*
X159090989Y-67945000D03*
X161630989Y-70485000D03*
X161630989Y-67945000D03*
X164170989Y-70485000D03*
X164170989Y-67945000D03*
X166710989Y-70485000D03*
X166710989Y-67945000D03*
X169250989Y-70485000D03*
X169250989Y-67945000D03*
D15*
X106253989Y-78965000D03*
D16*
X106253989Y-73885000D03*
D17*
X103205989Y-134765489D03*
D18*
X117175000Y-79400000D03*
D19*
X114635000Y-79400000D03*
D11*
X103300000Y-121900000D03*
D12*
X103300000Y-126980000D03*
D11*
X178897989Y-97427489D03*
D12*
X178897989Y-92347489D03*
X178897989Y-87267489D03*
X178897989Y-82187489D03*
X178897989Y-77107489D03*
X178897989Y-72027489D03*
D11*
X103300000Y-110500000D03*
D12*
X103300000Y-115580000D03*
D18*
X126324989Y-92094489D03*
D19*
X123784989Y-92094489D03*
X121244989Y-92094489D03*
D11*
X110900000Y-127600000D03*
D12*
X115980000Y-127600000D03*
D11*
X122300000Y-127600000D03*
D12*
X127380000Y-127600000D03*
D17*
X178897989Y-65931489D03*
D11*
X144290489Y-127577989D03*
D12*
X149370489Y-127577989D03*
D10*
X114100000Y-88120000D03*
D20*
X114100000Y-98280000D03*
D21*
X130169390Y-106571489D03*
D22*
X131669390Y-106571489D03*
D17*
X103205989Y-65931489D03*
D10*
X133368489Y-122128989D03*
D20*
X133368489Y-111968989D03*
D10*
X144290489Y-122128989D03*
D20*
X144290489Y-111968989D03*
D13*
X110145989Y-90170000D03*
D14*
X110145989Y-92710000D03*
X110145989Y-95250000D03*
X110145989Y-97790000D03*
X110145989Y-100330000D03*
D11*
X166134489Y-127577989D03*
D12*
X171214489Y-127577989D03*
D10*
X160292489Y-119628989D03*
X160292489Y-122128989D03*
X149370489Y-119628989D03*
X149370489Y-122128989D03*
X171214489Y-119628989D03*
X171214489Y-122128989D03*
X166134489Y-122128989D03*
D20*
X166134489Y-111968989D03*
D10*
X155212489Y-122128989D03*
D20*
X155212489Y-111968989D03*
D23*
X126065989Y-106532088D03*
D24*
X126065989Y-103992088D03*
X126065989Y-101452088D03*
D17*
X178897989Y-134765489D03*
D21*
X130169390Y-101491489D03*
D22*
X131669390Y-101491489D03*
D25*
X128595989Y-120023489D03*
D20*
X128595989Y-117483489D03*
X128595989Y-114943489D03*
X128595989Y-112403489D03*
X120975989Y-112403489D03*
X120975989Y-114943489D03*
X120975989Y-117483489D03*
X120975989Y-120023489D03*
D23*
X125987489Y-84634489D03*
D24*
X125987489Y-82094489D03*
X125987489Y-79554489D03*
D21*
X130075489Y-79593890D03*
D22*
X131575489Y-79593890D03*
D11*
X178897989Y-128923489D03*
D12*
X178897989Y-123843489D03*
X178897989Y-118763489D03*
X178897989Y-113683489D03*
X178897989Y-108603489D03*
X178897989Y-103523489D03*
D11*
X155212489Y-127577989D03*
D12*
X160292489Y-127577989D03*
D21*
X130090890Y-84634489D03*
D22*
X131590890Y-84634489D03*
M02*
